<?xml version="1.0" encoding="UTF-8"?>
<svg version="1.1" xmlns="http://www.w3.org/2000/svg" width="2059" height="735">
<path d="M0 0 C679.14 0 1358.28 0 2058 0 C2058 54.12 2058 108.24 2058 164 C1378.86 164 699.72 164 0 164 C0 109.88 0 55.76 0 0 Z " fill="#40CBFF" transform="translate(1,395)"/>
<path d="M0 0 C28.99875 -0.061875 57.9975 -0.12375 87.875 -0.1875 C96.98335449 -0.21481201 106.09170898 -0.24212402 115.47607422 -0.27026367 C126.72094727 -0.28381348 126.72094727 -0.28381348 132.00881958 -0.28633118 C135.65023443 -0.28909173 139.29151398 -0.30019374 142.93289185 -0.31672668 C187.64035607 -0.51051138 234.6227967 0.91982801 269.3125 33.1484375 C285.16922956 49.81039161 289.44827497 70.73506446 289.21484375 92.98828125 C289.04002132 99.98660784 288.10295095 106.29260403 286 113 C285.6596875 114.09183594 285.319375 115.18367188 284.96875 116.30859375 C278.79874174 134.00567826 265.49605222 149.94931363 249 159 C248.34 159 247.68 159 247 159 C247 159.66 247 160.32 247 161 C247.81984375 161.08121094 248.6396875 161.16242188 249.484375 161.24609375 C253.8623626 162.18492887 257.33241784 163.94441492 261.25 166.0625 C262.00216797 166.46662109 262.75433594 166.87074219 263.52929688 167.28710938 C269.56817812 170.61083471 274.90852096 174.33432081 280 179 C280.76570313 179.67417969 281.53140625 180.34835938 282.3203125 181.04296875 C297.10478549 194.80004616 304.96357826 215.22014496 306.12597656 235.16113281 C306.90071762 257.39325913 302.79436924 278.84623238 287.75 296.0625 C286.18387777 297.72471929 284.6004621 299.37081835 283 301 C282.26136719 301.763125 281.52273438 302.52625 280.76171875 303.3125 C250.85193254 332.26718379 202.45945074 334.20114092 163.36303711 334.11352539 C161.53872715 334.11321814 159.71441706 334.11335409 157.89010715 334.11389065 C153.05951218 334.11411393 148.22894262 334.10837089 143.39835358 334.10128021 C138.8447106 334.09553233 134.29107342 334.09531424 129.73742676 334.09460449 C116.47078122 334.08938313 103.20414028 334.07542187 89.9375 334.0625 C60.258125 334.041875 30.57875 334.02125 0 334 C0 223.78 0 113.56 0 0 Z M77 59 C77 84.41 77 109.82 77 136 C93.00974996 136.08740148 93.00974996 136.08740148 109.01953125 136.14648438 C115.55883173 136.1643486 122.098005 136.18537611 128.63720703 136.22631836 C133.91514344 136.25915321 139.19294323 136.27690344 144.47097397 136.28463173 C146.47458926 136.29013225 148.47819792 136.3008721 150.4817543 136.31719017 C168.88102377 136.46094824 188.01695097 135.55444982 202 122 C208.75926166 114.06008128 211.63200104 105.10294741 211.28125 94.7265625 C210.26370016 84.86198206 206.14250019 76.08027042 198.375 69.75 C182.2079892 58.75886836 162.89279621 58.54527186 144.08984375 58.70703125 C142.14116242 58.7126435 140.19247679 58.71690587 138.24378967 58.71989441 C133.17548427 58.73121515 128.10744689 58.76056845 123.03924561 58.79400635 C116.92577399 58.83045693 110.81221153 58.84392934 104.6986618 58.86136627 C95.46558952 58.89021651 86.23310248 58.94779188 77 59 Z M77 193 C77 220.06 77 247.12 77 275 C94.00292315 275.05828933 94.00292315 275.05828933 111.00585938 275.09765625 C117.95307518 275.10955523 124.90023765 275.12354479 131.84741211 275.15087891 C137.4560307 275.1728052 143.06459201 275.18460983 148.6732502 275.18975449 C150.79997215 275.19341506 152.92669141 275.2005618 155.0533886 275.21146011 C188.92791598 275.56372177 188.92791598 275.56372177 218.25 260.4375 C226.01332488 252.05310913 227.69464983 242.94132006 227.52392578 231.87451172 C227.25193184 225.62867842 226.28457842 220.41290337 223 215 C222.36384766 213.93072266 222.36384766 213.93072266 221.71484375 212.83984375 C214.53738119 202.14362518 201.80260732 197.2016268 189.5625 194.75 C175.84915109 192.75422044 162.10985243 192.86524099 148.2890625 192.90234375 C146.2239892 192.90421292 144.15891546 192.90563446 142.09384155 192.90663147 C136.70502459 192.9104174 131.31623534 192.92021335 125.9274292 192.93133545 C119.43686495 192.9434512 112.94629135 192.94797052 106.45571899 192.95378876 C96.63712683 192.96342786 86.81859525 192.9826117 77 193 Z " fill="#6B6D6F" transform="translate(0,6)"/>
<path d="M0 0 C21.45 0 42.9 0 65 0 C69.61057451 5.18689633 74.06260964 10.207138 78.25 15.6875 C82.03697018 20.57855867 85.9433829 25.33043252 90 30 C93.96833997 34.56997093 97.79371452 39.21502448 101.5 44 C105.74990358 49.48602938 110.18215871 54.77855144 114.72387695 60.0246582 C118.27561514 64.13325882 121.7088739 68.31783229 125.078125 72.578125 C128.66376736 77.09661741 132.34123694 81.54068708 136 86 C137.50028317 87.83310162 139.00028408 89.66643427 140.5 91.5 C141.2425 92.4075 141.985 93.315 142.75 94.25 C203.5 168.5 203.5 168.5 205.7578125 171.26171875 C207.22892613 173.05832268 208.70279528 174.85267457 210.1796875 176.64453125 C216.2413461 184.01128005 222.10064347 191.49172805 228 199 C228.33 133.33 228.66 67.66 229 0 C254.41 0 279.82 0 306 0 C306 110.22 306 220.44 306 334 C284.88 334 263.76 334 242 334 C229.81265509 319.59677419 229.81265509 319.59677419 225.5625 314.0625 C221.3628508 308.64379443 216.97475436 303.42601068 212.48071289 298.25024414 C208.54748571 293.69715103 204.82817111 289.00582322 201.14453125 284.25 C197.88018754 280.05966768 194.48227535 276.01043537 191 272 C186.5462293 266.87072166 182.30374782 261.61982428 178.14453125 256.25 C174.88018754 252.05966768 171.48227535 248.01043537 168 244 C163.5462293 238.87072166 159.30374782 233.61982428 155.14453125 228.25 C151.88018754 224.05966768 148.48227535 220.01043537 145 216 C141.0317822 211.42991884 137.20629106 206.78498273 133.5 202 C129.24657401 196.50942368 124.80988644 191.21321567 120.26513672 185.9621582 C116.8301692 181.98779257 113.51169188 177.9418534 110.25390625 173.8203125 C107.22908894 170.03535913 104.14598007 166.29971856 101.0625 162.5625 C100.45414307 161.82475342 99.84578613 161.08700684 99.21899414 160.3269043 C98.02632357 158.88076111 96.83353705 157.43471353 95.640625 155.98876953 C93.44548954 153.3278211 91.25197487 150.66561067 89.0625 148 C88.12083984 146.8553125 88.12083984 146.8553125 87.16015625 145.6875 C84.05914869 141.82946527 81.03889316 137.90714835 78 134 C77.67 200 77.34 266 77 334 C51.59 334 26.18 334 0 334 C0 223.78 0 113.56 0 0 Z " fill="#6B6D6F" transform="translate(1339,6)"/>
<path d="M0 0 C40.775625 -0.0928125 40.775625 -0.0928125 82.375 -0.1875 C95.17611572 -0.22846802 95.17611572 -0.22846802 108.23583984 -0.27026367 C118.7824707 -0.28381348 118.7824707 -0.28381348 123.74404907 -0.28633118 C127.15630128 -0.28908857 130.56840869 -0.3001772 133.98062134 -0.31672668 C191.11818715 -0.58125674 245.97444777 8.33391354 289 49 C289.79921875 49.73476563 290.5984375 50.46953125 291.421875 51.2265625 C316.86079218 75.45024478 331.00401954 109.47658746 335 144 C335.11085938 144.88558594 335.22171875 145.77117187 335.3359375 146.68359375 C339.60132562 187.32006166 331.59492735 232.58768585 306.09375 265.45703125 C305.4028125 266.29621094 304.711875 267.13539063 304 268 C303.5771875 268.51997559 303.154375 269.03995117 302.71875 269.57568359 C271.85117103 307.42573693 228.17802035 327.0306051 180.15625 332.640625 C120.32569917 337.8139433 60.05379284 334 0 334 C0 223.78 0 113.56 0 0 Z M78 64 C78 131.98 78 199.96 78 270 C155.32041741 274.65702299 155.32041741 274.65702299 225 244 C226.35544922 242.78376953 226.35544922 242.78376953 227.73828125 241.54296875 C246.73240113 223.59969921 256.32071944 198.29704555 257.203125 172.4140625 C257.69533039 142.22651042 249.69082492 114.64932876 228.5625 92.4375 C215.82261606 80.36813627 200.47928454 72.86118882 183.6875 68.25 C182.62366089 67.95174316 182.62366089 67.95174316 181.53833008 67.64746094 C149.36278183 59.3738499 106.62611341 64 78 64 Z " fill="#6B6D6F" transform="translate(1723,6)"/>
<path d="M0 0 C0.87140625 0.75023437 1.7428125 1.50046875 2.640625 2.2734375 C35.44138962 31.04776096 54.91284793 73.78684766 58 117 C59.87278879 160.39162454 48.85974412 202.96966793 21 237 C20.55575684 237.54962402 20.11151367 238.09924805 19.65380859 238.66552734 C-9.19707402 274.18724868 -50.24824389 296.16828365 -95.74560547 301.31030273 C-139.04241299 305.57650065 -185.57330032 294.15103907 -219.8125 266.5 C-221.55379421 265.01409561 -223.28330971 263.5142628 -225 262 C-225.85207031 261.2575 -226.70414063 260.515 -227.58203125 259.75 C-230.08758395 257.53310544 -232.55203566 255.28024085 -235 253 C-235.73863281 252.31550781 -236.47726562 251.63101562 -237.23828125 250.92578125 C-264.97714112 224.27085551 -285.11214988 182.74206219 -286.16113281 143.99682617 C-286.18063271 142.59560613 -286.19441125 141.19429737 -286.203125 139.79296875 C-286.21018463 139.0342598 -286.21724426 138.27555084 -286.22451782 137.49385071 C-286.45198933 105.87308919 -286.45198933 105.87308919 -283 92 C-282.80132324 91.17226074 -282.60264648 90.34452148 -282.39794922 89.49169922 C-279.25368952 76.70033259 -274.81637281 64.80479481 -269 53 C-268.67773438 52.33774414 -268.35546875 51.67548828 -268.0234375 50.99316406 C-260.49932289 35.69260174 -250.40398439 22.60771645 -239 10 C-238.21238281 9.12730469 -237.42476562 8.25460938 -236.61328125 7.35546875 C-174.40127235 -58.0252333 -66.40353555 -58.15596266 0 0 Z M-164 30 C-164.92296875 30.45117188 -165.8459375 30.90234375 -166.796875 31.3671875 C-192.55821656 44.54567726 -210.4840536 67.740027 -220.30859375 94.57421875 C-229.56689961 123.23087975 -226.64901825 153.80583567 -213.30493164 180.57983398 C-199.63117374 207.0359486 -175.89859337 226.8372912 -147.6875 236.3125 C-117.57488397 244.69782006 -87.02332601 241.76291531 -59.46240234 226.81665039 C-53.46277874 223.42751615 -48.11018917 219.63482273 -43 215 C-42.18660156 214.31550781 -41.37320312 213.63101563 -40.53515625 212.92578125 C-19.05959121 194.49451818 -5.58343742 168.21038231 -3 140 C-1.43345556 111.11267854 -8.20614441 81.56562988 -27.80078125 59.40625 C-28.88939453 58.21515625 -28.88939453 58.21515625 -30 57 C-30.69480469 56.1646875 -31.38960937 55.329375 -32.10546875 54.46875 C-49.67894474 33.72628654 -76.57723161 21.37768364 -103.3125 18.25 C-104.87351898 18.14243399 -106.43640884 18.05944231 -108 18 C-108.89332031 17.96003906 -109.78664063 17.92007813 -110.70703125 17.87890625 C-129.43730188 17.45264842 -147.3113287 21.48449849 -164 30 Z " fill="#6B6D6F" transform="translate(1214,43)"/>
<path d="M0 0 C83.49 0 166.98 0 253 0 C253 20.79 253 41.58 253 63 C195.25 63 137.5 63 78 63 C78 131.64 78 200.28 78 271 C137.73 271 197.46 271 259 271 C259 291.79 259 312.58 259 334 C173.53 334 88.06 334 0 334 C0 223.78 0 113.56 0 0 Z " fill="#6B6D6F" transform="translate(363,6)"/>
<path d="M0 0 C10.61270847 -0.46520132 21.22296501 -0.81960146 31.84382248 -1.03624344 C36.7773311 -1.14028483 41.70382997 -1.2810525 46.63330078 -1.50878906 C78.35209302 -2.93580645 78.35209302 -2.93580645 85.86883545 1.81207275 C90.21597722 6.3497614 92.31216809 11.5563546 94.15722656 17.48803711 C95.36543079 21.08919972 97.17089322 23.85093728 99.2578125 27.0234375 C99.89332031 28.06757812 100.52882813 29.11171875 101.18359375 30.1875 C101.82425781 31.239375 102.46492188 32.29125 103.125 33.375 C109.11951653 43.22846926 115.07390804 53.1052426 121 63 C126.80131157 72.68634432 132.63140809 82.35426796 138.5 92 C144.74608367 102.26618485 150.94640613 112.55887765 157.11914062 122.86932373 C161.33953651 129.91802235 165.57344664 136.95796107 169.84375 143.9765625 C170.23723633 144.62341003 170.63072266 145.27025757 171.03613281 145.93670654 C172.91996703 149.03229012 174.80612914 152.12642819 176.6953125 155.21875 C177.36304688 156.31445312 178.03078125 157.41015625 178.71875 158.5390625 C179.30591797 159.50021973 179.89308594 160.46137695 180.49804688 161.45166016 C180.99369141 162.2926123 181.48933594 163.13356445 182 164 C182.43997314 164.68562012 182.87994629 165.37124023 183.33325195 166.07763672 C184 168 184 168 183.3034668 170.02929688 C182.85656494 170.75181641 182.40966309 171.47433594 181.94921875 172.21875 C181.1917334 173.47099365 181.1917334 173.47099365 180.41894531 174.74853516 C179.84756836 175.65651855 179.27619141 176.56450195 178.6875 177.5 C178.09936523 178.46341309 177.51123047 179.42682617 176.90527344 180.41943359 C175.62291637 182.5176845 174.33370182 184.61175589 173.03857422 186.70214844 C170.63638698 190.58822571 168.27092072 194.4957627 165.90763855 198.40557861 C163.40920093 202.53783357 160.90263896 206.66504698 158.390625 210.7890625 C154.4406516 217.27446775 150.49822705 223.76442594 146.55847168 230.25604248 C144.78933276 233.17090848 143.01963783 236.08543687 141.25 239 C140.54166401 240.16666506 139.83333068 241.33333172 139.125 242.5 C137.70833333 244.83333333 136.29166667 247.16666667 134.875 249.5 C134.52440018 250.07745972 134.17380035 250.65491943 133.81257629 251.24987793 C133.10399289 252.41695408 132.39540525 253.58402764 131.68681335 254.75109863 C129.91977124 257.66147916 128.15280216 260.57190397 126.38598633 263.48242188 C123.1533762 268.80741221 119.92015927 274.13203024 116.68432617 279.45506287 C114.85170173 282.46982983 113.01954906 285.48488336 111.1875 288.5 C110.83214172 289.08474091 110.47678345 289.66948181 110.11065674 290.27194214 C105.50470124 297.85251676 100.92614914 305.44888857 96.375 313.0625 C85.11892296 331.88107704 85.11892296 331.88107704 83 334 C80.41360962 334.09507821 77.8540144 334.12556376 75.26733398 334.11352539 C74.05279541 334.11374443 74.05279541 334.11374443 72.8137207 334.1139679 C70.12448492 334.11326854 67.43531751 334.1054751 64.74609375 334.09765625 C62.88664284 334.09579215 61.02719144 334.09436821 59.16773987 334.09336853 C54.26370904 334.08954271 49.35970764 334.07971188 44.45568848 334.06866455 C39.45548908 334.05845181 34.45528494 334.05387121 29.45507812 334.04882812 C19.63670579 334.03808967 9.81835534 334.02101248 0 334 C2.69163974 328.50890881 5.41025834 323.10078053 8.609375 317.8828125 C9.27275879 316.79589111 9.93614258 315.70896973 10.61962891 314.58911133 C11.32973167 313.43439468 12.03985595 312.27969126 12.75 311.125 C13.5009208 309.89699289 14.25139973 308.66871549 15.00146484 307.44018555 C16.55685292 304.89346139 18.11410984 302.34789549 19.67285156 299.80322266 C22.98295689 294.39694704 26.27429558 288.97928717 29.56384277 283.56048584 C30.273715 282.39115242 30.9837585 281.22192296 31.69396973 280.05279541 C37.27101573 270.87185017 42.80821077 261.66746546 48.32543945 252.45043945 C51.65435903 246.89400644 54.99775053 241.34680973 58.36328125 235.8125 C58.7342392 235.20241089 59.10519714 234.59232178 59.48739624 233.96374512 C61.26951492 231.03382858 63.05349468 228.1050752 64.83984375 225.17773438 C70.32437966 216.17126609 75.65128227 207.09282014 81 198 C-38.79 197.505 -38.79 197.505 -161 197 C-161 176.87 -161 156.74 -161 136 C-81.47 135.67 -1.94 135.34 80 135 C69.41318168 117.16956914 58.82970907 99.36765421 48.046875 81.66015625 C44.17022247 75.28991811 40.32999578 68.89836976 36.5 62.5 C31.4977862 54.14496182 26.46566584 45.80886969 21.4069519 37.48797607 C20.32492541 35.70794096 19.24351583 33.92753277 18.16235352 32.14697266 C17.81272049 31.57116455 17.46308746 30.99535645 17.1028595 30.40209961 C16.06694264 28.69596522 15.03102989 26.98982833 13.99511719 25.28369141 C12.69228396 23.13940519 11.38829846 20.99581854 10.08300781 18.85302734 C8.36376005 16.02946876 6.64992582 13.20269935 4.9375 10.375 C4.17723511 9.13109497 4.17723511 9.13109497 3.40161133 7.86206055 C2.94810303 7.11093994 2.49459473 6.35981934 2.02734375 5.5859375 C1.63281006 4.9367334 1.23827637 4.2875293 0.83178711 3.61865234 C0 2 0 2 0 0 Z " fill="#42D5FF" transform="translate(633,6)"/>
<path d="M0 0 C2.57034811 2.06001265 4.35154428 4.2441133 6.17578125 6.98046875 C6.11390625 6.03171875 6.05203125 5.08296875 5.98828125 4.10546875 C6.08109375 2.55859375 6.08109375 2.55859375 6.17578125 0.98046875 C9.17578125 -1.01953125 9.17578125 -1.01953125 11.36328125 -0.64453125 C11.96140625 -0.43828125 12.55953125 -0.23203125 13.17578125 -0.01953125 C13.17578125 1.98046875 13.17578125 3.98046875 13.17578125 5.98046875 C12.18578125 5.98046875 11.19578125 5.98046875 10.17578125 5.98046875 C10.17578125 6.64046875 10.17578125 7.30046875 10.17578125 7.98046875 C13.14578125 7.48546875 13.14578125 7.48546875 16.17578125 6.98046875 C16.50578125 5.00046875 16.83578125 3.02046875 17.17578125 0.98046875 C30.740937 10.78405618 37.70697022 32.10113048 40.71289062 47.7824707 C41.52732096 53.40917059 41.3603313 59.0547669 41.36328125 64.73046875 C41.37552734 65.95507812 41.38777344 67.1796875 41.40039062 68.44140625 C41.41589021 78.09247851 41.21492131 86.66847911 35.6015625 94.765625 C33.24647738 98.42407229 31.52619263 102.39966186 29.703125 106.34375 C28.13880183 109.04430791 26.79028059 110.33305304 24.17578125 111.98046875 C24.71148102 107.54510506 25.55525787 103.4210058 26.78857422 99.13134766 C28.76023303 92.18112471 29.80544995 86.91323168 27.17578125 79.98046875 C26.51578125 79.32046875 25.85578125 78.66046875 25.17578125 77.98046875 C25.12421875 78.6559375 25.07265625 79.33140625 25.01953125 80.02734375 C24.10772237 87.19747718 24.10772237 87.19747718 21.3671875 89.5 C19.32414128 90.50090521 17.34447255 91.29765307 15.17578125 91.98046875 C13.69078125 92.47546875 13.69078125 92.47546875 12.17578125 92.98046875 C10.61459697 93.0478774 9.05075605 93.06561331 7.48828125 93.04296875 C6.68003906 93.03394531 5.87179687 93.02492188 5.0390625 93.015625 C4.42417969 93.00402344 3.80929687 92.99242187 3.17578125 92.98046875 C3.17578125 94.30046875 3.17578125 95.62046875 3.17578125 96.98046875 C6.47578125 96.98046875 9.77578125 96.98046875 13.17578125 96.98046875 C12.26825733 103.08165365 9.59380673 107.6901753 5.17578125 111.98046875 C2.10913438 113.17350918 -0.80473472 113.77771118 -4.03515625 114.37890625 C-12.43139079 116.1898588 -17.11115775 125.41360375 -21.82421875 131.98046875 C-21.210625 131.82707031 -20.59703125 131.67367187 -19.96484375 131.515625 C-17.91796875 131.00390625 -15.87109375 130.4921875 -13.82421875 129.98046875 C-13.49421875 130.64046875 -13.16421875 131.30046875 -12.82421875 131.98046875 C-17.17948318 136.77125962 -22.2400657 140.69622958 -27.82421875 143.98046875 C-28.81421875 143.98046875 -29.80421875 143.98046875 -30.82421875 143.98046875 C-29.3258577 140.8684881 -27.62488117 137.92700725 -25.82421875 134.98046875 C-30.49375939 136.25680986 -34.09278724 137.35570434 -37.82421875 140.54296875 C-43.23703643 144.94088311 -49.97387145 145.52849653 -56.82421875 144.98046875 C-57.81421875 144.32046875 -58.80421875 143.66046875 -59.82421875 142.98046875 C-59.43394694 139.66315839 -58.81913388 137.97347705 -56.82421875 135.23046875 C-54.57175641 131.57021745 -54.31864036 129.23165166 -54.1953125 125.03125 C-53.72753622 122.44617055 -52.80796514 121.64565733 -50.82421875 119.98046875 C-47.59586397 117.13192041 -46.16861464 115.34281663 -45.82421875 110.98046875 C-46.31921875 109.99046875 -46.31921875 109.99046875 -46.82421875 108.98046875 C-47.26567268 103.35193115 -46.24623872 99.92542619 -43.82421875 94.98046875 C-45.78151002 91.75020233 -47.77519813 89.23597454 -50.82421875 86.98046875 C-54.53443103 86.32597063 -57.95162829 86.22783805 -61.71484375 86.30859375 C-64.82421875 85.98046875 -64.82421875 85.98046875 -66.57421875 84.328125 C-72.73305159 72.76106707 -72.73305159 72.76106707 -72.94921875 66.16796875 C-71.76244235 62.8054356 -70.26843714 60.70252454 -68.08203125 57.94140625 C-66.58806049 55.61229655 -66.00682602 53.46847539 -65.32421875 50.79296875 C-64.4079854 47.41979681 -63.94597827 46.11210066 -61.51171875 43.48046875 C-58.82421875 41.98046875 -58.82421875 41.98046875 -55.88671875 41.04296875 C-52.62170377 40.15969309 -52.62170377 40.15969309 -50.19921875 37.35546875 C-46.54575176 34.16458543 -42.96168458 34.4170739 -38.28125 34.60546875 C-32.03398955 35.28313768 -25.94651411 36.57535178 -19.82421875 37.98046875 C-19.82421875 39.63046875 -19.82421875 41.28046875 -19.82421875 42.98046875 C-20.81421875 43.47546875 -20.81421875 43.47546875 -21.82421875 43.98046875 C-19.32916995 46.87447206 -16.83000542 49.6106261 -13.82421875 51.98046875 C-10.6609041 51.91201501 -10.6609041 51.91201501 -7.82421875 50.98046875 C-4.94921875 52.23046875 -4.94921875 52.23046875 -2.82421875 53.98046875 C-2.82421875 54.97046875 -2.82421875 55.96046875 -2.82421875 56.98046875 C0.66387316 56.21016753 0.66387316 56.21016753 4.17578125 54.98046875 C4.50578125 53.99046875 4.83578125 53.00046875 5.17578125 51.98046875 C2.86578125 51.32046875 0.55578125 50.66046875 -1.82421875 49.98046875 C-2.81421875 45.52546875 -2.81421875 45.52546875 -3.82421875 40.98046875 C-4.81421875 41.47546875 -4.81421875 41.47546875 -5.82421875 41.98046875 C-5.16421875 44.29046875 -4.50421875 46.60046875 -3.82421875 48.98046875 C-5.47421875 49.31046875 -7.12421875 49.64046875 -8.82421875 49.98046875 C-11.23530755 45.80124816 -11.60159641 41.5706283 -12.26171875 36.85546875 C-12.78580331 34.17681433 -13.37684466 32.27923936 -14.82421875 29.98046875 C-15.48421875 29.65046875 -16.14421875 29.32046875 -16.82421875 28.98046875 C-16.53546875 29.53476563 -16.24671875 30.0890625 -15.94921875 30.66015625 C-15.57796875 31.38460937 -15.20671875 32.1090625 -14.82421875 32.85546875 C-14.45296875 33.57476562 -14.08171875 34.2940625 -13.69921875 35.03515625 C-12.82421875 36.98046875 -12.82421875 36.98046875 -12.82421875 38.98046875 C-13.81421875 39.47546875 -13.81421875 39.47546875 -14.82421875 39.98046875 C-14.82421875 41.30046875 -14.82421875 42.62046875 -14.82421875 43.98046875 C-15.81421875 43.65046875 -16.80421875 43.32046875 -17.82421875 42.98046875 C-18.51953125 41.08984375 -18.51953125 41.08984375 -18.94921875 38.73046875 C-19.10390625 37.92222656 -19.25859375 37.11398438 -19.41796875 36.28125 C-19.55203125 35.52199219 -19.68609375 34.76273438 -19.82421875 33.98046875 C-20.03046875 32.96984375 -20.23671875 31.95921875 -20.44921875 30.91796875 C-20.63484375 29.95890625 -20.63484375 29.95890625 -20.82421875 28.98046875 C-21.71109375 29.02171875 -22.59796875 29.06296875 -23.51171875 29.10546875 C-26.79698888 28.98149629 -28.8787117 28.36658971 -31.82421875 26.98046875 C-32.38109375 27.94984375 -32.93796875 28.91921875 -33.51171875 29.91796875 C-35.82421875 32.98046875 -35.82421875 32.98046875 -38.26171875 33.91796875 C-40.99065784 33.98452824 -43.21154417 33.77878598 -45.82421875 32.98046875 C-47.04755128 30.53380369 -46.86968698 29.18817501 -46.63671875 26.48046875 C-46.58128906 25.68640625 -46.52585937 24.89234375 -46.46875 24.07421875 C-45.82421875 21.98046875 -45.82421875 21.98046875 -43.9453125 20.64453125 C-41.00983196 19.72550419 -39.50447002 20.64034312 -36.82421875 21.98046875 C-35.46803376 20.8551277 -35.46803376 20.8551277 -35.76171875 17.91796875 C-35.78234375 16.94859375 -35.80296875 15.97921875 -35.82421875 14.98046875 C-36.48421875 14.65046875 -37.14421875 14.32046875 -37.82421875 13.98046875 C-37.16421875 12.66046875 -36.50421875 11.34046875 -35.82421875 9.98046875 C-35.16421875 9.98046875 -34.50421875 9.98046875 -33.82421875 9.98046875 C-34.03046875 9.38234375 -34.23671875 8.78421875 -34.44921875 8.16796875 C-34.82421875 5.98046875 -34.82421875 5.98046875 -32.82421875 2.98046875 C-31.50421875 3.31046875 -30.18421875 3.64046875 -28.82421875 3.98046875 C-28.96859375 4.82609375 -29.11296875 5.67171875 -29.26171875 6.54296875 C-29.83009845 10.01640024 -30.33624268 13.49492537 -30.82421875 16.98046875 C-29.75171875 16.48546875 -28.67921875 15.99046875 -27.57421875 15.48046875 C-24.57005067 14.09392964 -23.3648698 13.98046875 -19.82421875 13.98046875 C-19.82421875 12.99046875 -19.82421875 12.00046875 -19.82421875 10.98046875 C-18.50421875 11.31046875 -17.18421875 11.64046875 -15.82421875 11.98046875 C-16.31921875 10.99046875 -16.31921875 10.99046875 -16.82421875 9.98046875 C-19.85356366 9.32274447 -19.85356366 9.32274447 -22.82421875 8.98046875 C-21.94921875 4.23046875 -21.94921875 4.23046875 -20.82421875 1.98046875 C-14.80526458 -0.62296778 -6.13661058 -3.42966887 0 0 Z M-8.82421875 6.98046875 C-9.27796875 7.92921875 -9.73171875 8.87796875 -10.19921875 9.85546875 C-11.82421875 12.98046875 -11.82421875 12.98046875 -13.82421875 14.98046875 C-11.51421875 15.31046875 -9.20421875 15.64046875 -6.82421875 15.98046875 C-6.82421875 15.32046875 -6.82421875 14.66046875 -6.82421875 13.98046875 C-6.16421875 13.98046875 -5.50421875 13.98046875 -4.82421875 13.98046875 C-5.40006307 11.59482798 -6.0464947 9.31364091 -6.82421875 6.98046875 C-7.48421875 6.98046875 -8.14421875 6.98046875 -8.82421875 6.98046875 Z M18.17578125 68.98046875 C18.50578125 71.29046875 18.83578125 73.60046875 19.17578125 75.98046875 C20.82578125 75.98046875 22.47578125 75.98046875 24.17578125 75.98046875 C23.55703125 75.38234375 22.93828125 74.78421875 22.30078125 74.16796875 C20.17578125 71.98046875 20.17578125 71.98046875 18.17578125 68.98046875 Z M3.17578125 72.98046875 C2.84578125 74.96046875 2.51578125 76.94046875 2.17578125 78.98046875 C3.16578125 79.47546875 3.16578125 79.47546875 4.17578125 79.98046875 C4.17578125 77.67046875 4.17578125 75.36046875 4.17578125 72.98046875 C3.84578125 72.98046875 3.51578125 72.98046875 3.17578125 72.98046875 Z " fill="#6B6D6F" transform="translate(1155.82421875,107.01953125)"/>
<path d="M0 0 C4.54963048 0.24752114 9.10247147 0.35552655 13.65692139 0.47607422 C22.56120227 0.73195934 31.45118743 1.14026328 40.34442139 1.64794922 C38.84953329 5.48933709 37.11797139 8.93726132 35.02801514 12.49560547 C34.69999405 13.05570313 34.37197296 13.61580078 34.03401184 14.19287109 C32.95377863 16.03432576 31.8681232 17.87250977 30.78192139 19.71044922 C30.0162483 21.01112078 29.25062411 22.31182113 28.48504639 23.61254883 C20.91272842 36.45550467 13.1695935 49.1935441 5.40045166 61.91802979 C2.25223114 67.07523786 -0.89094874 72.23550731 -4.03057861 77.39794922 C-4.3756546 77.96510651 -4.72073059 78.53226379 -5.07626343 79.11660767 C-10.56483582 88.14268967 -15.9733281 97.21463717 -21.35415649 106.30529785 C-33.02590366 126.01993309 -33.02590366 126.01993309 -37.71807861 133.64794922 C-38.10536133 134.28829102 -38.49264404 134.92863281 -38.8916626 135.58837891 C-39.75705056 136.9779942 -40.69726174 138.32071309 -41.65557861 139.64794922 C-42.31557861 139.64794922 -42.97557861 139.64794922 -43.65557861 139.64794922 C-44.06171387 138.93590332 -44.46784912 138.22385742 -44.8862915 137.49023438 C-46.82957725 134.08410522 -48.7735696 130.67838012 -50.71807861 127.27294922 C-51.07439362 126.64891205 -51.43070862 126.02487488 -51.79782104 125.38192749 C-57.7318293 114.99181304 -63.69738095 104.62035414 -69.69293213 94.265625 C-70.82997678 92.29955447 -71.96160303 90.33033621 -73.08673096 88.35742188 C-74.11370595 86.58378843 -75.17051974 84.82702177 -76.25958252 83.09082031 C-76.73701904 82.30916504 -77.21445557 81.52750977 -77.70635986 80.72216797 C-78.13215332 80.05145264 -78.55794678 79.3807373 -78.99664307 78.68969727 C-79.95043814 75.73431074 -79.03747714 74.37116342 -77.65557861 71.64794922 C-76.75368731 69.97551328 -75.81765267 68.32120179 -74.85479736 66.68310547 C-74.2966333 65.72984375 -73.73846924 64.77658203 -73.16339111 63.79443359 C-72.26233643 62.26786133 -72.26233643 62.26786133 -71.34307861 60.71044922 C-70.7178833 59.64503906 -70.09268799 58.57962891 -69.44854736 57.48193359 C-66.41824081 52.32247011 -63.37471449 47.17081753 -60.33135986 42.01904297 C-59.83870132 41.180392 -59.34604279 40.34174103 -58.8384552 39.47767639 C-57.77737817 37.69349416 -56.69922543 35.91925443 -55.59742737 34.15992737 C-52.62023565 29.33888726 -50.2247787 24.7282247 -48.34259033 19.37646484 C-39.19626822 -4.10418777 -21.80078512 -1.31215498 0 0 Z " fill="#6B6D6F" transform="translate(877.6555786132813,4.35205078125)"/>
<path d="M0 0 C2.75 1.9375 2.75 1.9375 4 5 C4.2270441 21.18500052 -15.02662672 37.56981887 -25.25 48.37890625 C-29.63484059 52.8779354 -34.14632046 56.82391783 -39.25 60.4921875 C-41.27753475 61.978784 -41.27753475 61.978784 -42 65 C-42.0685495 66.89470816 -42.08480372 68.7916834 -42.0625 70.6875 C-42.05347656 71.68136719 -42.04445313 72.67523437 -42.03515625 73.69921875 C-42.02355469 74.45847656 -42.01195312 75.21773437 -42 76 C-39.12459576 76.84748757 -37.58304082 77.25546665 -34.7890625 76.03125 C-22.70594167 67.48146053 -12.53691613 56.34046216 -8 42 C-5.69 42 -3.38 42 -1 42 C-0.11404828 44.46257986 0.09022446 45.7096315 -0.69677734 48.24243164 C-1.0727002 49.04028076 -1.44862305 49.83812988 -1.8359375 50.66015625 C-2.24070312 51.53607422 -2.64546875 52.41199219 -3.0625 53.31445312 C-3.495625 54.22130859 -3.92875 55.12816406 -4.375 56.0625 C-5.21713087 57.86542564 -6.05831816 59.66879241 -6.8984375 61.47265625 C-7.46570557 62.66773804 -7.46570557 62.66773804 -8.04443359 63.88696289 C-9.51096497 67.12989315 -10.12028395 69.66267876 -10.0625 73.1875 C-10.0315625 75.0746875 -10.0315625 75.0746875 -10 77 C-1.1742119 75.87130241 5.55525225 67.91895766 11.10546875 61.453125 C14.40445504 57.18144791 17.23180866 52.62806989 20 48 C19.01 47.67 18.02 47.34 17 47 C17 45.35 17 43.7 17 42 C18.04414062 41.85691406 19.08828125 41.71382812 20.1640625 41.56640625 C23.72653637 40.54791561 24.96890721 39.0602025 26.8359375 35.90234375 C27.70559031 34.25951936 28.5514216 32.60389929 29.375 30.9375 C30.23633811 29.2796147 31.09828463 27.62204531 31.9609375 25.96484375 C32.33009277 25.2287085 32.69924805 24.49257324 33.07958984 23.73413086 C34 22 34 22 35 21 C38.5 20.875 38.5 20.875 42 21 C42.33 21.33 42.66 21.66 43 22 C42.71269945 24.33944736 42.38063221 26.6739143 42 29 C41.01 29.33 40.02 29.66 39 30 C38.27095914 31.64034193 37.61344757 33.31301918 37 35 C36.01 36.65 35.02 38.3 34 40 C38.62 40 43.24 40 48 40 C48 40.99 48 41.98 48 43 C47.071875 43.28875 46.14375 43.5775 45.1875 43.875 C44.54941406 44.07996094 43.91132812 44.28492188 43.25390625 44.49609375 C41 45 41 45 38.40234375 44.91015625 C34.88037432 44.94483105 33.08007332 45.21046019 30 47 C25.05401755 53.93149195 19.7960622 64.55979406 19.9375 73.1875 C19.9684375 75.0746875 19.9684375 75.0746875 20 77 C28.5548669 75.919225 35.09622234 68.40615176 40.42578125 62.0703125 C42.0571867 59.92479169 43.49752954 57.71520126 44.9375 55.4375 C47.91985616 50.86455389 51.26339245 46.82880729 56 44 C59.5 44.0625 59.5 44.0625 62 45 C62.33 46.65 62.66 48.3 63 50 C62.48050781 50.43570313 61.96101563 50.87140625 61.42578125 51.3203125 C54.48467361 57.2478388 48.67177247 62.61760347 47 72 C47.36502158 74.20506208 47.36502158 74.20506208 48 76 C58.05752042 74.59541525 65.7336107 63.57802453 71.60253906 55.90478516 C72.1694043 55.14858887 72.73626953 54.39239258 73.3203125 53.61328125 C73.8975708 52.8435498 74.4748291 52.07381836 75.06958008 51.28076172 C76.21798516 49.7367931 77.35614914 48.18514615 78.4831543 46.62548828 C79.01078369 45.91247559 79.53841309 45.19946289 80.08203125 44.46484375 C80.54843018 43.821521 81.0148291 43.17819824 81.49536133 42.51538086 C83.30763925 40.6901644 84.46695793 40.30678058 87 40 C89.6875 40.6875 89.6875 40.6875 92 42 C92.81616211 43.66113281 92.81616211 43.66113281 93 46 C91.92016602 49.11621094 91.92016602 49.11621094 90.25390625 52.734375 C89.81896095 53.69141327 89.81896095 53.69141327 89.37522888 54.66778564 C88.44846973 56.7003513 87.50579001 58.72506117 86.5625 60.75 C85.93057636 62.12841884 85.29970422 63.50732026 84.66992188 64.88671875 C83.12543398 68.26349312 81.56658407 71.63340988 80 75 C82.75765759 73.72769417 84.90174225 72.38069701 87.12890625 70.3203125 C87.68900391 69.80339844 88.24910156 69.28648437 88.82617188 68.75390625 C89.39916016 68.21636719 89.97214844 67.67882812 90.5625 67.125 C91.4277832 66.33029297 91.4277832 66.33029297 92.31054688 65.51953125 C95.1801441 62.85183187 97.78703816 60.26037794 100 57 C100.99 57.33 101.98 57.66 103 58 C101.73201683 61.63253697 100.36501454 64.01804889 97.65625 66.7421875 C96.99189941 67.4115332 96.32754883 68.08087891 95.64306641 68.77050781 C94.93585449 69.46499023 94.22864258 70.15947266 93.5 70.875 C92.77603027 71.60041992 92.05206055 72.32583984 91.30615234 73.07324219 C87.61699671 76.70232458 84.17990327 79.73243366 79.625 82.25 C72.38976645 86.83878906 69.64999063 96.07734754 66.18164062 103.55615234 C64.52655805 106.97916403 62.64184404 110.21725638 60.625 113.4375 C60.01914063 114.40558594 59.41328125 115.37367188 58.7890625 116.37109375 C56.06238585 120.37776054 53.45707188 123.98036211 49.4375 126.75 C48.56931641 127.36101562 48.56931641 127.36101562 47.68359375 127.984375 C43.70763091 130.38286767 39.50873143 130.50975911 35 130 C30.43055556 127.86111111 30.43055556 127.86111111 29 125 C28.14141976 118.98993832 29.92720557 115.925071 33.296875 111.2109375 C33.85890625 110.48132813 34.4209375 109.75171875 35 109 C35.55816406 108.21753906 36.11632813 107.43507813 36.69140625 106.62890625 C39.81677482 103.0698994 43.40512301 100.39183712 47.1875 97.5625 C47.90486328 97.01529297 48.62222656 96.46808594 49.36132812 95.90429688 C50.44124023 95.08735352 50.44124023 95.08735352 51.54296875 94.25390625 C52.27314209 93.70057617 53.00331543 93.14724609 53.75561523 92.57714844 C56 91 56 91 58.30883789 89.75878906 C66.1645411 85.42035337 68.72582156 78.50847987 72.0625 70.625 C72.64536883 69.3023174 73.2306385 67.98069005 73.81835938 66.66015625 C75.24011699 63.45179404 76.62888656 60.23038533 78 57 C77.61908203 57.44585449 77.23816406 57.89170898 76.84570312 58.35107422 C57.86502762 80.53666404 57.86502762 80.53666404 49.0625 81.375 C45.94716472 81.28797946 44.93464272 80.96163812 42.125 79.3125 C39.9397329 76.93441522 38.93765111 75.06867635 38 72 C37.49210937 72.47050781 36.98421875 72.94101562 36.4609375 73.42578125 C30.48526767 78.83074104 25.36206686 82.69592484 17 83 C14.05244268 81.65437601 12.45722728 80.91445456 11 78 C10.93003986 76.29297265 10.91559846 74.58331997 10.9375 72.875 C10.94652344 71.96492187 10.95554687 71.05484375 10.96484375 70.1171875 C10.98224609 69.06917969 10.98224609 69.06917969 11 68 C10.57589844 68.51949219 10.15179687 69.03898438 9.71484375 69.57421875 C3.71382535 76.70949557 -1.26022013 81.37154303 -10.69140625 82.921875 C-13.9192551 83.03110846 -15.62765072 82.14276709 -18 80 C-19.20272819 77.59454362 -19.10071472 76.05003047 -19.0625 73.375 C-19.05347656 72.55773437 -19.04445313 71.74046875 -19.03515625 70.8984375 C-19.01775391 69.95871094 -19.01775391 69.95871094 -19 69 C-19.72703125 69.77923828 -19.72703125 69.77923828 -20.46875 70.57421875 C-31.63083095 82.18707604 -31.63083095 82.18707604 -40.75 82.5625 C-44.04586061 82.38471499 -45.69084309 82.1809699 -48.5625 80.5 C-50.53601627 77.06779779 -51.22347079 73.88264605 -52 70 C-52.49628906 70.53109375 -52.99257812 71.0621875 -53.50390625 71.609375 C-58.77965191 77.09534961 -63.10306389 80.9921717 -70.625 82.9375 C-74.5869114 83.01086873 -76.0772388 82.67223881 -79 80 C-80.92885216 75.22379466 -81.06702737 71.09408002 -81 66 C-81.70125 66.74765625 -82.4025 67.4953125 -83.125 68.265625 C-94.4460449 80.11136718 -94.4460449 80.11136718 -103.125 81.5 C-108.64836188 80.53941532 -111.85437792 77.41686168 -115 73 C-115.6290625 73.47050781 -116.258125 73.94101562 -116.90625 74.42578125 C-126.26931511 81.23656505 -133.21623592 84.24301309 -145 83 C-148.66549946 81.64955283 -151.65187841 80.16996415 -154 77 C-155.1875 73.8125 -155.1875 73.8125 -156 71 C-156.72703125 71.79664063 -156.72703125 71.79664063 -157.46875 72.609375 C-162.95250816 78.38841244 -167.67024747 82.4948622 -175.75 83.4375 C-179.28580821 82.96152582 -180.48815341 82.45828909 -183 80 C-184.26393533 74.6827548 -183.57351527 69.33021688 -181.0625 64.5 C-178.09218824 59.75265202 -174.4434216 55.51920516 -170.79296875 51.28515625 C-168.79423771 49.22185323 -168.79423771 49.22185323 -169 47 C-171.97 46.34 -174.94 45.68 -178 45 C-178.81984375 46.18078125 -179.6396875 47.3615625 -180.484375 48.578125 C-181.57270586 50.135564 -182.66125924 51.69284752 -183.75 53.25 C-184.55824219 54.41595703 -184.55824219 54.41595703 -185.3828125 55.60546875 C-188.02285226 59.37235475 -190.56541102 62.89886626 -194 66 C-194.66 65.67 -195.32 65.34 -196 65 C-194.64401019 61.22211794 -192.91839446 58.24252141 -190.5625 55 C-188.20762402 51.74487985 -186.02646488 48.47039857 -184 45 C-184.33 44.67 -184.66 44.34 -185 44 C-185.63625355 40.73920057 -185.4802286 38.73561028 -183.6484375 35.9296875 C-180.2336121 31.85295762 -177.09526994 28.85282543 -172 27 C-171.01 27 -170.02 27 -169 27 C-169.47610659 31.99911924 -171.03162219 34.97832683 -174 39 C-171.94077598 41.05922402 -167.78291876 40.41427579 -164.9375 40.5625 C-163.79958008 40.62727539 -163.79958008 40.62727539 -162.63867188 40.69335938 C-160.75934562 40.79973633 -158.87969756 40.90039934 -157 41 C-157.41207723 46.30153202 -159.40531031 49.25942722 -162.75 53.1875 C-168.75359145 60.61217987 -173.3514523 68.27178449 -174 78 C-164.18371496 73.92531564 -157.01239725 66.75693268 -150.5625 58.4375 C-144.32784588 50.54921002 -134.09496833 41.02182387 -123.6171875 39.69921875 C-119.4343949 39.57144856 -117.58027975 39.61314683 -114 42 C-112.82345473 46.70618107 -112.41328674 48.80310494 -114.5625 53.1875 C-120.53360385 60.07723521 -128.06181718 65.07026026 -137.33203125 66.3125 C-139.25 66.3125 -139.25 66.3125 -142 66 C-141.505 64.515 -141.505 64.515 -141 63 C-138.99609375 62.04296875 -138.99609375 62.04296875 -136.4375 61.1875 C-129.22068862 58.48248629 -123.36354779 54.45805072 -119 48 C-118.67 47.01 -118.34 46.02 -118 45 C-128.6845684 48.10570969 -136.70206652 54.86966038 -142.625 64.25 C-144.54807812 67.79046464 -146 70.8922403 -146 75 C-144.37330209 78.06709711 -144.37330209 78.06709711 -142.1015625 78.7265625 C-134.67988627 79.69220811 -125.84477028 74.91126639 -120.1015625 70.5625 C-118.72757157 69.38287852 -117.36284095 68.19248583 -116 67 C-115.34 67 -114.68 67 -114 67 C-113.73058594 66.42765625 -113.46117187 65.8553125 -113.18359375 65.265625 C-107.28158578 53.968052 -95.28066392 44.33426938 -83.12109375 40.390625 C-80.39702283 39.88895448 -77.76931414 39.75327121 -75 39.6875 C-73.96875 39.65011719 -72.9375 39.61273437 -71.875 39.57421875 C-68.2968318 40.10413768 -67.14536163 41.13779879 -65 44 C-65 44.99 -65 45.98 -65 47 C-65.54527344 46.82082031 -66.09054687 46.64164063 -66.65234375 46.45703125 C-75.13656006 44.06404716 -80.58742639 46.5156317 -88.0625 50.6875 C-97.04183295 56.34838382 -104.39913274 63.98081279 -106.8125 74.5625 C-106.874375 75.366875 -106.93625 76.17125 -107 77 C-96.63510182 76.35219386 -86.29649801 63.64709224 -79.55859375 56.359375 C-78.23179804 54.84443331 -76.91714534 53.31866962 -75.62109375 51.77734375 C-74 50 -74 50 -71 48 C-68.36565746 48.32126128 -66.37289903 48.81355048 -64 50 C-65.35837528 53.51282166 -66.9066144 56.86902762 -68.5625 60.25 C-70.88635932 65.31587621 -71.82342068 69.43775138 -72 75 C-71.67 75.66 -71.34 76.32 -71 77 C-62.90066012 76.06433619 -56.38212541 68.94490545 -51.25 63 C-47.84972823 58.35376576 -45.91218025 53.25998556 -43.83276367 47.93701172 C-38.61586967 34.71322593 -31.91876405 22.09977185 -23 11 C-22.3503125 10.14792969 -21.700625 9.29585937 -21.03125 8.41796875 C-15.4989168 1.83236442 -8.70497743 -2.02441336 0 0 Z M-4 4 C-17.7328677 13.313514 -25.23613849 26.70164637 -32.9375 41 C-33.32736084 41.71800781 -33.71722168 42.43601562 -34.11889648 43.17578125 C-36.01738512 46.76891101 -37.49639165 49.90718297 -38 54 C-25.2429521 43.41436451 -15.29166017 31.39570024 -6.375 17.5 C-5.93679932 16.82960693 -5.49859863 16.15921387 -5.04711914 15.46850586 C-2.79441604 11.86536152 -1.42208701 9.29306792 -2 5 C-2.66 4.67 -3.32 4.34 -4 4 Z M51.875 100 C51.29186035 100.50039795 50.7087207 101.0007959 50.10791016 101.51635742 C40.31542985 109.44573433 40.31542985 109.44573433 34 120 C34.20435808 122.78647557 34.20435808 122.78647557 35 125 C37.30056088 125.81763864 38.51446491 126.19234259 40.82421875 125.27734375 C49.73084139 118.8727912 56.53456634 107.37206718 60 97 C60 96.34 60 95.68 60 95 C56.58124887 95 54.36274588 97.8527674 51.875 100 Z " fill="#6B6D6F" transform="translate(1479,605)"/>
<path d="M0 0 C7.80119394 5.36240262 13.47345832 13.3768884 15.63671875 22.61328125 C16.85771687 34.87309914 15.24711389 45.01932 7.3125 54.8046875 C-0.4641041 63.1976192 -10.73781639 67.69645858 -22.14160156 68.15625 C-35.12710115 68.2643274 -44.86805825 64.8781183 -54.26953125 55.765625 C-61.17585669 48.40570615 -64.12108599 40.87441169 -63.98828125 30.80078125 C-63.97990234 29.92711914 -63.97152344 29.05345703 -63.96289062 28.15332031 C-63.62439507 18.42697452 -60.19999181 11.4570123 -53.73828125 4.23828125 C-38.78428983 -9.5898305 -16.99671603 -9.97327965 0 0 Z " fill="#FBFEFF" transform="translate(1384.36328125,446.38671875)"/>
<path d="M0 0 C-0.47610659 4.99911924 -2.03162219 7.97832683 -5 12 C-2.94077598 14.05922402 1.21708124 13.41427579 4.0625 13.5625 C5.20041992 13.62727539 5.20041992 13.62727539 6.36132812 13.69335938 C8.24065438 13.79973633 10.12030244 13.90039934 12 14 C11.58792277 19.30153202 9.59468969 22.25942722 6.25 26.1875 C0.24640855 33.61217987 -4.3514523 41.27178449 -5 51 C4.81628504 46.92531564 11.98760275 39.75693268 18.4375 31.4375 C24.67215412 23.54921002 34.90503167 14.02182387 45.3828125 12.69921875 C49.5656051 12.57144856 51.41972025 12.61314683 55 15 C56.17654527 19.70618107 56.58671326 21.80310494 54.4375 26.1875 C48.46639615 33.07723521 40.93818282 38.07026026 31.66796875 39.3125 C29.75 39.3125 29.75 39.3125 27 39 C27.33 38.01 27.66 37.02 28 36 C30.00390625 35.04296875 30.00390625 35.04296875 32.5625 34.1875 C39.77931138 31.48248629 45.63645221 27.45805072 50 21 C50.495 19.515 50.495 19.515 51 18 C40.3154316 21.10570969 32.29793348 27.86966038 26.375 37.25 C24.45192188 40.79046464 23 43.8922403 23 48 C24.62669791 51.06709711 24.62669791 51.06709711 26.8984375 51.7265625 C34.32011373 52.69220811 43.15522972 47.91126639 48.8984375 43.5625 C50.27242843 42.38287852 51.63715905 41.19248583 53 40 C53.66 40 54.32 40 55 40 C55.25910156 39.42765625 55.51820313 38.8553125 55.78515625 38.265625 C61.66243218 27.30478886 75.08531732 17.21557276 86.87890625 13.390625 C89.60297717 12.88895448 92.23068586 12.75327121 95 12.6875 C96.03125 12.65011719 97.0625 12.61273437 98.125 12.57421875 C101.7031682 13.10413768 102.85463837 14.13779879 105 17 C105 17.99 105 18.98 105 20 C104.45472656 19.82082031 103.90945313 19.64164063 103.34765625 19.45703125 C94.86343994 17.06404716 89.41257361 19.5156317 81.9375 23.6875 C72.95816705 29.34838382 65.60086726 36.98081279 63.1875 47.5625 C63.0946875 48.7690625 63.0946875 48.7690625 63 50 C73.36489818 49.35219386 83.70350199 36.64709224 90.44140625 29.359375 C91.76820196 27.84443331 93.08285466 26.31866962 94.37890625 24.77734375 C96 23 96 23 99 21 C101.63434254 21.32126128 103.62710097 21.81355048 106 23 C104.64162472 26.51282166 103.0933856 29.86902762 101.4375 33.25 C99.11364068 38.31587621 98.17657932 42.43775138 98 48 C98.33 48.66 98.66 49.32 99 50 C103.61432708 49.49753244 106.04616777 47.7039147 109.5625 44.75 C110.49191406 43.98171875 111.42132812 43.2134375 112.37890625 42.421875 C116.95552575 38.19310587 120.23392266 33.27708406 123.5625 28.0625 C123.94857422 27.46759766 124.33464844 26.87269531 124.73242188 26.25976562 C127.07370859 22.61023012 129.12718376 18.91915219 131 15 C132.98 15 134.96 15 137 15 C138.63927404 19.84288389 137.03189266 23.24451568 135.0625 27.6875 C132.87887344 32.18993762 132.87887344 32.18993762 132 37 C132.38929688 36.53851562 132.77859375 36.07703125 133.1796875 35.6015625 C150.09636768 15.87842847 150.09636768 15.87842847 158.75 13.125 C161 13 161 13 164 14 C164.46450943 20.50313209 163.32575612 24.4174808 160 30 C160.54527344 29.61328125 161.09054687 29.2265625 161.65234375 28.828125 C175.78390743 19.06889128 175.78390743 19.06889128 183 20 C182.58809876 25.21741574 180.56971196 29.05252948 178.2109375 33.61328125 C175.52580738 38.9055861 174.76277796 43.06944891 175 49 C176.80157793 49.7511975 176.80157793 49.7511975 179 50 C181.01488605 48.99342677 181.01488605 48.99342677 182.875 47.375 C183.57496094 46.8078125 184.27492188 46.240625 184.99609375 45.65625 C185.98802734 44.83640625 185.98802734 44.83640625 187 44 C187.969375 43.29875 188.93875 42.5975 189.9375 41.875 C196.56030265 36.21123708 201.569834 28.72169405 204.625 20.625 C207.94258883 11.99926904 213.59719813 8.90782012 221.66796875 4.98046875 C225.67554952 3.29553948 229.15255241 2.82166122 233.5 2.75 C234.4384375 2.72421875 235.376875 2.6984375 236.34375 2.671875 C239.45137792 3.05575845 240.79131674 3.80672616 243 6 C243.48909171 9.83121839 243.35424962 12.86100051 241 16 C238.375 17.25 238.375 17.25 236 18 C236.52268466 15.23723823 237.10869587 12.6739124 238 10 C233.27747626 8.42582542 229.51261949 10.19756443 225 12 C219.33653233 15.03240789 214.47809998 18.5509767 211 24 C210.87068313 26.52959703 210.87068313 26.52959703 212 29 C214.633783 31.02483571 214.633783 31.02483571 217.875 32.625 C225.0433901 36.44238364 225.0433901 36.44238364 227 39 C227.54202213 43.10388183 227.29557147 45.40885705 225.4375 49.125 C218.97633173 56.74586514 210.49347211 59.97988027 200.67578125 61.31640625 C198.8125 61.375 198.8125 61.375 196 61 C195.34 60.34 194.68 59.68 194 59 C194.08525586 55.07823022 194.54937746 53.46280153 197.3125 50.625 C200 49 200 49 204 49 C203.0022242 51.99332739 202.2477975 52.94766315 200 55 C202.48383701 55.90679764 203.6577879 56.12304943 206.18359375 55.21484375 C211.20804935 52.36736198 214.81955633 49.87005436 218 45 C218.873938 41.77566873 218.873938 41.77566873 219 39 C212.52101036 33.60902869 212.52101036 33.60902869 205 30 C204.53851562 30.67804687 204.07703125 31.35609375 203.6015625 32.0546875 C189.12938596 52.70471014 189.12938596 52.70471014 177.93359375 55.51953125 C174.98204468 56.01417391 172.51276577 56.1484322 169.625 55.3125 C167.51053842 53.60466565 166.82666685 52.61777835 166 50 C165.32004473 42.11251885 167.31909203 34.9777212 171 28 C164.04381916 32.83331366 158.09106854 38.48779205 152.40625 44.7578125 C151 46 151 46 148.3125 46.1875 C147.1678125 46.0946875 147.1678125 46.0946875 146 46 C144.78525525 42.35576575 145.29806868 41.71511257 146.87109375 38.33203125 C147.48500977 36.99301758 147.48500977 36.99301758 148.11132812 35.62695312 C148.54896484 34.69818359 148.98660156 33.76941406 149.4375 32.8125 C150.0881543 31.40194336 150.0881543 31.40194336 150.75195312 29.96289062 C151.82600195 27.63775195 152.90894188 25.3171936 154 23 C144.54574718 29.12997264 138.28435654 36.95214678 131.74389648 46.00854492 C128.55161651 50.33705187 125.80603911 53.49822622 121 56 C119.68 56 118.36 56 117 56 C117.28877529 54.6452138 117.58120717 53.29120698 117.875 51.9375 C118.03742188 51.18339844 118.19984375 50.42929687 118.3671875 49.65234375 C119.14231832 46.40349296 120.0659598 43.20634808 121 40 C120.28714844 40.74765625 119.57429687 41.4953125 118.83984375 42.265625 C105.73961872 55.81963669 105.73961872 55.81963669 96 56 C93.1875 55 93.1875 55 91 53 C89.07114784 48.22379466 88.93297263 44.09408002 89 39 C87.948125 40.12148438 87.948125 40.12148438 86.875 41.265625 C75.5539551 53.11136718 75.5539551 53.11136718 66.875 54.5 C63.0731946 53.83881645 60.97040444 52.44233254 58 50 C56.125 47.25 56.125 47.25 55 45 C54.5153125 45.38671875 54.030625 45.7734375 53.53125 46.171875 C44.06477467 53.52659814 36.14400024 56.91561907 24 56 C20.33450054 54.64955283 17.34812159 53.16996415 15 50 C13.8125 46.8125 13.8125 46.8125 13 44 C12.5153125 44.53109375 12.030625 45.0621875 11.53125 45.609375 C6.04749184 51.38841244 1.32975253 55.4948622 -6.75 56.4375 C-10.28580821 55.96152582 -11.48815341 55.45828909 -14 53 C-15.26393533 47.6827548 -14.57351527 42.33021688 -12.0625 37.5 C-9.09218824 32.75265202 -5.4434216 28.51920516 -1.79296875 24.28515625 C0.20576229 22.22185323 0.20576229 22.22185323 0 20 C-2.97 19.34 -5.94 18.68 -9 18 C-9.81984375 19.18078125 -10.6396875 20.3615625 -11.484375 21.578125 C-12.57270586 23.135564 -13.66125924 24.69284752 -14.75 26.25 C-15.55824219 27.41595703 -15.55824219 27.41595703 -16.3828125 28.60546875 C-19.02285226 32.37235475 -21.56541102 35.89886626 -25 39 C-25.66 38.67 -26.32 38.34 -27 38 C-25.64401019 34.22211794 -23.91839446 31.24252141 -21.5625 28 C-19.20762402 24.74487985 -17.02646488 21.47039857 -15 18 C-15.33 17.67 -15.66 17.34 -16 17 C-16.63625355 13.73920057 -16.4802286 11.73561028 -14.6484375 8.9296875 C-10.61983388 4.12020917 -6.63507635 0 0 0 Z " fill="#6B6D6F" transform="translate(614,632)"/>
<path d="M0 0 C2.0625 0.4375 2.0625 0.4375 4 1 C3.979375 1.763125 3.95875 2.52625 3.9375 3.3125 C3.87057159 6.10185786 3.87057159 6.10185786 5 9 C6.32 8.34 7.64 7.68 9 7 C8.505 5.515 8.505 5.515 8 4 C16.97837775 1.00720742 30.01691299 2.40189025 39 5 C42 8.09278351 42 8.09278351 42 11 C41.030625 11.28875 40.06125 11.5775 39.0625 11.875 C35.89335797 12.64214682 35.89335797 12.64214682 35 15 C33.02 15 31.04 15 29 15 C29 15.66 29 16.32 29 17 C25.29829236 18.85085382 20.48403168 17.94509369 16.38476562 17.78515625 C11.61140468 17.69391912 9.02667979 18.19819366 5 21 C4.01 21 3.02 21 2 21 C0.9375 19.125 0.9375 19.125 0 17 C0.33 16.34 0.66 15.68 1 15 C0.505 15.515625 0.01 16.03125 -0.5 16.5625 C-4.24714452 18.7171081 -6.80844613 17.76845154 -11 17 C-10.505 21.455 -10.505 21.455 -10 26 C-11.485 26.495 -11.485 26.495 -13 27 C-13.73323796 29.01508358 -13.73323796 29.01508358 -14 31 C-15.65 31 -17.3 31 -19 31 C-19.66 29.68 -20.32 28.36 -21 27 C-21.66 27 -22.32 27 -23 27 C-23.0928125 27.8971875 -23.0928125 27.8971875 -23.1875 28.8125 C-24 31 -24 31 -26.3125 32.8125 C-29 34 -29 34 -30.890625 33.4765625 C-34.95037604 32.55935949 -38.57834422 34.9322368 -42 37 C-43.50098126 38.45494443 -43.50098126 38.45494443 -44.6875 40.0625 C-47.22015004 43.27965005 -49.23463814 44.49385526 -53 46 C-53.66 46 -54.32 46 -55 46 C-55.33 49.3 -55.66 52.6 -56 56 C-57.485 55.505 -57.485 55.505 -59 55 C-58.67 52.03 -58.34 49.06 -58 46 C-60.68466503 46.67116626 -62.50525112 47.35824905 -64.22265625 49.5859375 C-65.95053833 52.5214791 -67 54.55757651 -67 58 C-66.01 58 -65.02 58 -64 58 C-65.875 63.75 -65.875 63.75 -67 66 C-67.20207944 67.4538493 -67.36404499 68.91348362 -67.5 70.375 C-67.77824672 73.3462775 -68.21092347 76.11987066 -69 79 C-65.2236068 79.2981424 -65.2236068 79.2981424 -63 78 C-63 79.32 -63 80.64 -63 82 C-61.329375 82.185625 -61.329375 82.185625 -59.625 82.375 C-56 83 -56 83 -54 85 C-54.37083833 88.4117126 -55.10858176 91.68901795 -56 95 C-54.515 95.495 -54.515 95.495 -53 96 C-51.83203125 97.7421875 -51.83203125 97.7421875 -50.8125 99.875 C-50.46832031 100.57367188 -50.12414063 101.27234375 -49.76953125 101.9921875 C-49 104 -49 104 -49 107 C-50.485 107.495 -50.485 107.495 -52 108 C-52 108.66 -52 109.32 -52 110 C-50.515 109.01 -50.515 109.01 -49 108 C-47.68 108 -46.36 108 -45 108 C-42.11354359 114.30992798 -39.31698875 120.92151973 -40 128 C-40.97377423 129.35260546 -41.9728915 130.68743537 -43 132 C-43 133.11375 -43 134.2275 -43 135.375 C-43 139.4282753 -43.97713034 141.54426432 -46 145 C-47.32 145 -48.64 145 -50 145 C-49.79503906 145.56847656 -49.59007812 146.13695312 -49.37890625 146.72265625 C-47.70907331 151.5084454 -46.53623064 155.95943201 -46 161 C-46.66 161 -47.32 161 -48 161 C-48.08226668 164.04386724 -47.97608217 166.07175348 -47 169 C-45.69064688 169.71261254 -44.35170206 170.37141128 -43 171 C-41.39267019 172.1762248 -39.80975038 173.3863747 -38.25 174.625 C-37.45078125 175.25664062 -36.6515625 175.88828125 -35.828125 176.5390625 C-35.22484375 177.02117187 -34.6215625 177.50328125 -34 178 C-34.99 178.33 -35.98 178.66 -37 179 C-41.00458223 176.45162949 -44.47927916 173.17360752 -48 170 C-48.50837402 169.54367188 -49.01674805 169.08734375 -49.54052734 168.6171875 C-66.57242456 153.08730733 -78.60683064 131.03481188 -80.22314453 107.79101562 C-81.08486094 88.46047446 -79.49401318 71.56093634 -71 54 C-70.57074219 53.10152344 -70.14148438 52.20304687 -69.69921875 51.27734375 C-57.60797417 27.60575225 -36.92259658 11.60755234 -11.98046875 3.1640625 C-8.36175746 2.01741804 -4.76440861 1.49163851 -1 1 C-0.67 0.67 -0.34 0.34 0 0 Z M-25 24 C-24.67 24.99 -24.34 25.98 -24 27 C-24 26.01 -24 25.02 -24 24 C-24.33 24 -24.66 24 -25 24 Z " fill="#6B6D6F" transform="translate(1083,75)"/>
<path d="M0 0 C5.61 0 11.22 0 17 0 C20.24049264 3.29510768 21.19446294 4.95647385 23 9 C24.06289944 10.83129126 25.17887288 12.62309963 26.30194092 14.4180603 C27.53221814 16.38513299 28.73268476 18.36760698 29.92578125 20.35742188 C31.57617548 23.10840993 33.23302794 25.85531773 34.89453125 28.59960938 C35.68793001 29.91901235 36.48091448 31.23866456 37.2734375 32.55859375 C37.6483432 33.17625107 38.0232489 33.79390839 38.40951538 34.43028259 C41 38.77112877 41 38.77112877 41 41 C41.66 41 42.32 41 43 41 C43.26264648 40.12762695 43.52529297 39.25525391 43.79589844 38.35644531 C44.99022681 35.02724287 46.42948397 32.31288209 48.265625 29.296875 C49.23048828 27.70166016 49.23048828 27.70166016 50.21484375 26.07421875 C51.22224609 24.42873047 51.22224609 24.42873047 52.25 22.75 C52.90613281 21.66847656 53.56226563 20.58695312 54.23828125 19.47265625 C55.5395924 17.3279506 56.85911058 15.19417847 58.19726562 13.07226562 C60.05254305 10.08114424 60.05254305 10.08114424 61.22460938 6.97460938 C62.421875 4.203125 62.421875 4.203125 66 0 C71.61 0 77.22 0 83 0 C83 23.76 83 47.52 83 72 C76.73 72 70.46 72 64 72 C63.505 54.675 63.505 54.675 63 37 C58.15006622 45.46455177 58.15006622 45.46455177 53.30712891 53.93310547 C52.70304199 54.98385254 52.09895508 56.03459961 51.4765625 57.1171875 C50.85861816 58.19597168 50.24067383 59.27475586 49.60400391 60.38623047 C48 63 48 63 46 65 C42.89237279 65.70864303 40.10583737 65.71895629 37 65 C34.59703586 62.94988187 33.31684714 60.46820519 31.875 57.6875 C31.10279316 56.31571276 30.32932612 54.94463425 29.5546875 53.57421875 C28.71164062 52.06472656 27.86859375 50.55523437 27 49 C24.69 45.37 22.38 41.74 20 38 C19.67 49.22 19.34 60.44 19 72 C12.73 72 6.46 72 0 72 C0 48.24 0 24.48 0 0 Z " fill="#FCFDFF" transform="translate(439,441)"/>
<path d="M0 0 C10.085625 -0.12375 10.085625 -0.12375 20.375 -0.25 C22.47665527 -0.28641602 24.57831055 -0.32283203 26.74365234 -0.36035156 C28.4410704 -0.37205244 30.13849982 -0.38224094 31.8359375 -0.390625 C32.6916333 -0.41108887 33.5473291 -0.43155273 34.42895508 -0.45263672 C43.36888505 -0.4577119 52.50989116 2.64167002 59 9 C64.44562892 15.21962694 64.82576744 22.25530304 64.4140625 30.1796875 C63.5447057 38.20073422 60.83519393 42.96902498 54.5859375 48.00390625 C53 49 53 49 51 49 C51.45439453 49.6612085 51.90878906 50.32241699 52.37695312 51.00366211 C54.42036554 53.97997088 56.46022682 56.9586961 58.5 59.9375 C59.57314453 61.49887695 59.57314453 61.49887695 60.66796875 63.09179688 C61.34472656 64.08115234 62.02148438 65.07050781 62.71875 66.08984375 C63.66137695 67.46450806 63.66137695 67.46450806 64.62304688 68.86694336 C66 71 66 71 66 72 C46.50294776 73.79829623 46.50294776 73.79829623 40.93359375 69.796875 C38.9412894 66.94292826 37.41555325 64.17646738 36 61 C34.49901253 58.11310076 33.28093676 56.44007188 31 54 C27.21820719 53.11364231 23.92536129 53.04729351 20 53 C20 59.27 20 65.54 20 72 C13.4 72 6.8 72 0 72 C0 48.24 0 24.48 0 0 Z " fill="#FDFEFF" transform="translate(1554,441)"/>
<path d="M0 0 C17 0 17 0 22.0625 4.375 C23.41529578 6.22113781 24.7286347 8.09686797 26 10 C27.32035781 11.65626097 28.65357082 13.30236281 30 14.9375 C30.64453125 15.75476563 31.2890625 16.57203125 31.953125 17.4140625 C34.89671568 21.13287362 37.91184857 24.79194511 40.921875 28.45703125 C42.96515734 30.95736359 44.98283807 33.47854758 47 36 C47.33 24.12 47.66 12.24 48 0 C54.6 0 61.2 0 68 0 C68 23.76 68 47.52 68 72 C51 72 51 72 47.1015625 69.4296875 C45.79760742 67.73291016 45.79760742 67.73291016 44.625 65.875 C43.9295105 64.93406494 43.9295105 64.93406494 43.2199707 63.97412109 C42.25626136 62.66579882 41.31412429 61.34131612 40.39404297 60.00195312 C38.56825705 57.37998385 36.59382786 54.89501406 34.60107422 52.39892578 C33.27126588 50.73011967 31.96893618 49.04287112 30.66796875 47.3515625 C27.5725033 43.46296901 24.27291137 39.74047014 21 36 C20.67 47.88 20.34 59.76 20 72 C13.4 72 6.8 72 0 72 C0 48.24 0 24.48 0 0 Z " fill="#FDFEFF" transform="translate(892,441)"/>
<path d="M0 0 C3.5 0.125 3.5 0.125 4.5 1.125 C4.21269945 3.46444736 3.88063221 5.7989143 3.5 8.125 C2.51 8.455 1.52 8.785 0.5 9.125 C-0.22904086 10.76534193 -0.88655243 12.43801918 -1.5 14.125 C-2.49 15.775 -3.48 17.425 -4.5 19.125 C0.12 19.125 4.74 19.125 9.5 19.125 C9.5 20.115 9.5 21.105 9.5 22.125 C8.1078125 22.558125 8.1078125 22.558125 6.6875 23 C6.04941406 23.20496094 5.41132812 23.40992188 4.75390625 23.62109375 C2.5 24.125 2.5 24.125 -0.09765625 24.03515625 C-3.61962568 24.06983105 -5.41992668 24.33546019 -8.5 26.125 C-13.44598245 33.05649195 -18.7039378 43.68479406 -18.5625 52.3125 C-18.541875 53.570625 -18.52125 54.82875 -18.5 56.125 C-9.64405246 54.99244543 -2.88194655 46.98360235 2.68359375 40.49609375 C5.14397258 37.28437343 7.19530884 33.91071121 9.17578125 30.38671875 C12.71481189 24.34217969 12.71481189 24.34217969 16.4375 23.3125 C19.15099283 23.14636779 20.95988916 23.24573086 23.5 24.125 C22.91639375 27.58116172 21.75944773 29.16184732 19.3125 31.625 C14.29211551 37.17439195 9.14072877 44.62071497 9.125 52.375 C9.24875 53.2825 9.3725 54.19 9.5 55.125 C15.5298298 55.125 18.64360488 53.0639005 22.96875 48.9609375 C29.94228211 41.14799875 35.88083351 32.25124201 40.875 23.0625 C42.1953125 20.7578125 42.1953125 20.7578125 43.5 19.125 C46.95766656 18.39357054 48.38847976 18.56923988 51.5 20.125 C50.99717662 25.19964825 49.19554311 28.85620798 46.5625 33.125 C42.89504541 39.13463937 40.18087928 44.3175332 40.375 51.5 C40.39304687 52.37398437 40.41109375 53.24796875 40.4296875 54.1484375 C40.45289063 54.80070313 40.47609375 55.45296875 40.5 56.125 C50.04443354 54.88963892 56.81816339 45.99060626 62.6875 39.03125 C63.285625 38.4021875 63.88375 37.773125 64.5 37.125 C65.16 37.125 65.82 37.125 66.5 37.125 C66.726875 36.465 66.95375 35.805 67.1875 35.125 C68.90571358 31.19765467 71.16774607 27.71239822 73.5 24.125 C73.17 23.795 72.84 23.465 72.5 23.125 C71.86374645 19.86420057 72.0197714 17.86061028 73.8515625 15.0546875 C77.2663879 10.97795762 80.40473006 7.97782543 85.5 6.125 C86.49 6.125 87.48 6.125 88.5 6.125 C88.02389341 11.12411924 86.46837781 14.10332683 83.5 18.125 C85.55922402 20.18422402 89.71708124 19.53927579 92.5625 19.6875 C93.32111328 19.73068359 94.07972656 19.77386719 94.86132812 19.81835938 C96.74065438 19.92473633 98.62030244 20.02539934 100.5 20.125 C100.08792277 25.42653202 98.09468969 28.38442722 94.75 32.3125 C88.74640855 39.73717987 84.1485477 47.39678449 83.5 57.125 C93.58519163 52.93869404 102.14934313 45.76982 106.58203125 35.65625 C107.83571197 32.19929209 108.90590594 28.71682484 109.82421875 25.15625 C110.5 23.125 110.5 23.125 112.5 21.125 C115.625 21 115.625 21 118.5 21.125 C120.2471529 26.18675154 118.48275485 29.73560683 116.5625 34.4375 C116.27181641 35.17806641 115.98113281 35.91863281 115.68164062 36.68164062 C114.96578953 38.50060651 114.23441265 40.3134488 113.5 42.125 C114.04414551 41.56514404 114.58829102 41.00528809 115.14892578 40.4284668 C117.63294509 37.88185844 120.12878183 35.34714968 122.625 32.8125 C123.4809375 31.93142578 124.336875 31.05035156 125.21875 30.14257812 C126.05664062 29.29501953 126.89453125 28.44746094 127.7578125 27.57421875 C128.5223877 26.79393311 129.28696289 26.01364746 130.07470703 25.2097168 C133.7247475 22.07223989 136.99020479 20.23894681 141.8125 19.875 C144.5 20.125 144.5 20.125 145.5 21.125 C145.5 29.01506908 142.52233317 34.94725945 139.09375 41.8671875 C136.77764556 46.60157746 136.40110845 49.88374798 136.5 55.125 C138.2848545 55.89970954 138.2848545 55.89970954 140.5 56.125 C148.09277872 51.97292598 155.72725015 44.28412478 160.5 37.125 C161.49 37.455 162.48 37.785 163.5 38.125 C160.48017744 47.08860031 151.66022365 55.34309054 143.6484375 60.26171875 C140.97909088 61.33431076 138.80928921 61.42577841 135.9375 61.4375 C134.98746094 61.45425781 134.03742188 61.47101562 133.05859375 61.48828125 C130.5 61.125 130.5 61.125 128.69140625 59.9140625 C126.15153694 56.10009482 126.9044816 51.48485033 127.5 47.125 C128.83814747 42.95162055 130.57625421 39.05837309 132.5 35.125 C132.83 34.43535156 133.16 33.74570312 133.5 33.03515625 C134.1435528 31.72020462 134.81667144 30.4197278 135.5 29.125 C124.82303813 34.42209736 118.25555869 44.83112145 111.25390625 54.09765625 C110.65449219 54.89042969 110.05507813 55.68320312 109.4375 56.5 C108.95152344 57.16773438 108.46554687 57.83546875 107.96484375 58.5234375 C106.25561563 60.39219358 104.86824065 61.23858857 102.5 62.125 C101.18 62.125 99.86 62.125 98.5 62.125 C98.665 61.031875 98.83 59.93875 99 58.8125 C99.56718184 55.24974127 99.56718184 55.24974127 99.5 52.125 C98.61248047 52.95644531 98.61248047 52.95644531 97.70703125 53.8046875 C96.91683594 54.52914062 96.12664062 55.25359375 95.3125 56 C94.53519531 56.71929688 93.75789062 57.43859375 92.95703125 58.1796875 C88.33830962 61.83648141 84.3516453 62.65696775 78.5 62.125 C76.3203125 60.92578125 76.3203125 60.92578125 74.5 59.125 C73.23606467 53.8077548 73.92648473 48.45521688 76.4375 43.625 C79.40781176 38.87765202 83.0565784 34.64420516 86.70703125 30.41015625 C88.70576229 28.34685323 88.70576229 28.34685323 88.5 26.125 C84.045 25.135 84.045 25.135 79.5 24.125 C78.73816406 25.23617187 77.97632813 26.34734375 77.19140625 27.4921875 C71.42556236 35.8300086 65.68513231 43.92678001 58.5 51.125 C57.76136719 51.87523437 57.02273438 52.62546875 56.26171875 53.3984375 C50.53659384 58.87636358 45.21291524 62.21227621 37.125 62.0625 C33.95190152 60.92925054 33.23027238 59.97284207 31.5 57.125 C30.98828125 54.546875 30.98828125 54.546875 30.8125 51.875 C30.74675781 50.98296875 30.68101562 50.0909375 30.61328125 49.171875 C30.55720703 48.15867187 30.55720703 48.15867187 30.5 47.125 C30.07589844 47.72828125 29.65179687 48.3315625 29.21484375 48.953125 C25.43298201 54.10643111 22.46430155 57.67537615 16.5 60.125 C12.22506793 60.72499047 10.09487691 60.40560232 6.1875 58.5625 C2.9348458 55.61241829 2.31794223 53.37829959 1.5 49.125 C0.84773437 49.73988281 0.19546875 50.35476563 -0.4765625 50.98828125 C-1.35054687 51.79652344 -2.22453125 52.60476563 -3.125 53.4375 C-3.98351562 54.23800781 -4.84203125 55.03851562 -5.7265625 55.86328125 C-10.57399047 59.81632463 -15.21265592 61.89636931 -21.5 62.125 C-24.44755732 60.77937601 -26.04277272 60.03945456 -27.5 57.125 C-27.56996014 55.41797265 -27.58440154 53.70831997 -27.5625 52 C-27.55347656 51.08992187 -27.54445313 50.17984375 -27.53515625 49.2421875 C-27.52355469 48.54351563 -27.51195312 47.84484375 -27.5 47.125 C-28.49 47.125 -29.48 47.125 -30.5 47.125 C-29.90456577 44.1615821 -29.03912747 42.17039017 -27.25 39.7421875 C-26.8065625 39.13246094 -26.363125 38.52273438 -25.90625 37.89453125 C-25.4421875 37.26933594 -24.978125 36.64414062 -24.5 36 C-21.24371459 31.7235238 -21.24371459 31.7235238 -18.5 27.125 C-19.49 26.795 -20.48 26.465 -21.5 26.125 C-21.5 24.475 -21.5 22.825 -21.5 21.125 C-20.45585938 20.98191406 -19.41171875 20.83882812 -18.3359375 20.69140625 C-14.77346363 19.67291561 -13.53109279 18.1852025 -11.6640625 15.02734375 C-10.79440969 13.38451936 -9.9485784 11.72889929 -9.125 10.0625 C-8.26366189 8.4046147 -7.40171537 6.74704531 -6.5390625 5.08984375 C-5.98532959 3.98564087 -5.98532959 3.98564087 -5.42041016 2.85913086 C-3.80243824 -0.18926556 -3.84871153 0.13745398 0 0 Z M111.5 43.125 C112.5 45.125 112.5 45.125 112.5 45.125 Z M31.5 44.125 C32.5 46.125 32.5 46.125 32.5 46.125 Z " fill="#6B6D6F" transform="translate(906.5,625.875)"/>
<path d="M0 0 C18.48 0 36.96 0 56 0 C56 5.28 56 10.56 56 16 C44.12 16 32.24 16 20 16 C20 19.96 20 23.92 20 28 C30.56 28 41.12 28 52 28 C52 32.95 52 37.9 52 43 C41.44 43 30.88 43 20 43 C20 47.29 20 51.58 20 56 C32.54 56 45.08 56 58 56 C58 61.28 58 66.56 58 72 C38.86 72 19.72 72 0 72 C0 48.24 0 24.48 0 0 Z " fill="#FDFEFF" transform="translate(680,441)"/>
<path d="M0 0 C3.5 0.125 3.5 0.125 4.5 1.125 C4.21269945 3.46444736 3.88063221 5.7989143 3.5 8.125 C2.51 8.455 1.52 8.785 0.5 9.125 C-0.22904086 10.76534193 -0.88655243 12.43801918 -1.5 14.125 C-2.49 15.775 -3.48 17.425 -4.5 19.125 C0.12 19.125 4.74 19.125 9.5 19.125 C9.5 20.115 9.5 21.105 9.5 22.125 C8.571875 22.41375 7.64375 22.7025 6.6875 23 C6.04941406 23.20496094 5.41132812 23.40992188 4.75390625 23.62109375 C2.5 24.125 2.5 24.125 -0.09765625 24.03515625 C-3.61962568 24.06983105 -5.41992668 24.33546019 -8.5 26.125 C-13.44598245 33.05649195 -18.7039378 43.68479406 -18.5625 52.3125 C-18.541875 53.570625 -18.52125 54.82875 -18.5 56.125 C-8.82495005 54.88769343 -1.23740388 45.42377081 4.5 38.125 C6.09054256 35.82002934 7.61749257 33.48379533 9.1328125 31.12890625 C12.59596063 26.05292056 17.61861625 21.08546125 23.5 19.125 C30.68533605 18.55473523 30.68533605 18.55473523 34 20.875 C35.5 23.125 35.5 23.125 35.5 27.125 C37.48 28.115 37.48 28.115 39.5 29.125 C40.14987806 36.04259091 39.37090412 40.43692693 35.59375 46.3125 C34.32777834 48.05757215 34.32777834 48.05757215 34.5 50.125 C40.82218202 49.67341557 44.14113019 46.72621944 48.2109375 42.23828125 C49.66677482 40.55347421 51.0957607 38.85291148 52.5 37.125 C53.16 37.455 53.82 37.785 54.5 38.125 C52.65998134 44.66728859 47.5797392 49.391884 42.5 53.625 C38.88761673 55.43119163 36.49190473 55.50159479 32.5 55.125 C31.51 54.795 30.52 54.465 29.5 54.125 C27.93858215 55.28018927 27.93858215 55.28018927 26.4375 56.9375 C22.25002134 60.72659274 18.12291967 61.99864225 12.5 62.125 C8.59277039 61.40928317 6.11956465 59.90978189 3.625 56.75 C2.52548484 54.18446463 2.00280696 51.85844149 1.5 49.125 C0.84773438 49.73988281 0.19546875 50.35476563 -0.4765625 50.98828125 C-1.35054687 51.79652344 -2.22453125 52.60476563 -3.125 53.4375 C-3.98351563 54.23800781 -4.84203125 55.03851562 -5.7265625 55.86328125 C-10.57399047 59.81632463 -15.21265592 61.89636931 -21.5 62.125 C-24.44755732 60.77937601 -26.04277272 60.03945456 -27.5 57.125 C-27.56950541 55.58476004 -27.58452357 54.04165012 -27.5625 52.5 C-27.55347656 51.68273437 -27.54445313 50.86546875 -27.53515625 50.0234375 C-27.52355469 49.39695312 -27.51195312 48.77046875 -27.5 48.125 C-28.06847656 48.72828125 -28.63695312 49.3315625 -29.22265625 49.953125 C-40.13844787 61.25160715 -40.13844787 61.25160715 -49.25 61.5625 C-53.86446988 61.55605521 -53.86446988 61.55605521 -56.296875 59.90625 C-58.86065055 56.11053036 -58.09469645 51.47883271 -57.5 47.125 C-56.16185253 42.95162055 -54.42374579 39.05837309 -52.5 35.125 C-52.005 34.09052734 -52.005 34.09052734 -51.5 33.03515625 C-50.8564472 31.72020462 -50.18332856 30.4197278 -49.5 29.125 C-60.17696187 34.42209736 -66.74444131 44.83112145 -73.74609375 54.09765625 C-74.34550781 54.89042969 -74.94492188 55.68320312 -75.5625 56.5 C-76.04847656 57.16773438 -76.53445313 57.83546875 -77.03515625 58.5234375 C-78.74438437 60.39219358 -80.13175935 61.23858857 -82.5 62.125 C-83.82 62.125 -85.14 62.125 -86.5 62.125 C-86.335 61.031875 -86.17 59.93875 -86 58.8125 C-85.43281816 55.24974127 -85.43281816 55.24974127 -85.5 52.125 C-86.10585937 52.67929687 -86.71171875 53.23359375 -87.3359375 53.8046875 C-92.95534165 58.66331078 -97.83147522 62.22017673 -105.5 62.125 C-108.65679284 60.83651313 -109.98305798 60.15888403 -111.5 57.125 C-111.56996014 55.41797265 -111.58440154 53.70831997 -111.5625 52 C-111.55347656 51.08992187 -111.54445313 50.17984375 -111.53515625 49.2421875 C-111.52355469 48.54351563 -111.51195312 47.84484375 -111.5 47.125 C-112.49 47.125 -113.48 47.125 -114.5 47.125 C-113.92857222 43.03783857 -111.73120103 40.65568802 -109.1875 37.5 C-105.17075356 32.38128619 -102.46337515 27.33091308 -100.5 21.125 C-98.19 21.125 -95.88 21.125 -93.5 21.125 C-92.61404828 23.58757986 -92.40977554 24.8346315 -93.19677734 27.36743164 C-93.5727002 28.16528076 -93.94862305 28.96312988 -94.3359375 29.78515625 C-94.94308594 31.0990332 -94.94308594 31.0990332 -95.5625 32.43945312 C-95.995625 33.34630859 -96.42875 34.25316406 -96.875 35.1875 C-97.71713087 36.99042564 -98.55831816 38.79379241 -99.3984375 40.59765625 C-99.77661621 41.39437744 -100.15479492 42.19109863 -100.54443359 43.01196289 C-102.01096497 46.25489315 -102.62028395 48.78767876 -102.5625 52.3125 C-102.541875 53.570625 -102.52125 54.82875 -102.5 56.125 C-96.04691876 55.29973917 -92.21447216 51.32921679 -87.5 47.125 C-86.7575 46.46371094 -86.015 45.80242188 -85.25 45.12109375 C-79.65886406 39.54054708 -77.61684079 33.70552768 -75.5078125 26.28515625 C-74.5 23.125 -74.5 23.125 -72.5 21.125 C-69.375 21 -69.375 21 -66.5 21.125 C-64.7528471 26.18675154 -66.51724515 29.73560683 -68.4375 34.4375 C-68.72818359 35.17806641 -69.01886719 35.91863281 -69.31835938 36.68164062 C-70.03421047 38.50060651 -70.76558735 40.3134488 -71.5 42.125 C-70.95585449 41.56514404 -70.41170898 41.00528809 -69.85107422 40.4284668 C-67.36705491 37.88185844 -64.87121817 35.34714968 -62.375 32.8125 C-61.5190625 31.93142578 -60.663125 31.05035156 -59.78125 30.14257812 C-58.94335938 29.29501953 -58.10546875 28.44746094 -57.2421875 27.57421875 C-56.4776123 26.79393311 -55.71303711 26.01364746 -54.92529297 25.2097168 C-51.2752525 22.07223989 -48.00979521 20.23894681 -43.1875 19.875 C-40.5 20.125 -40.5 20.125 -39.5 21.125 C-39.5 29.01506908 -42.47766683 34.94725945 -45.90625 41.8671875 C-48.22235444 46.60157746 -48.59889155 49.88374798 -48.5 55.125 C-46.71099972 55.88894102 -46.71099972 55.88894102 -44.5 56.125 C-33.18461192 50.22514785 -24.75333415 37.83021112 -18.5 27.125 C-19.985 26.63 -19.985 26.63 -21.5 26.125 C-21.5 24.475 -21.5 22.825 -21.5 21.125 C-20.45585938 20.98191406 -19.41171875 20.83882812 -18.3359375 20.69140625 C-14.77346363 19.67291561 -13.53109279 18.1852025 -11.6640625 15.02734375 C-10.79440969 13.38451936 -9.9485784 11.72889929 -9.125 10.0625 C-8.26366189 8.4046147 -7.40171537 6.74704531 -6.5390625 5.08984375 C-5.98532959 3.98564087 -5.98532959 3.98564087 -5.42041016 2.85913086 C-3.80243824 -0.18926556 -3.84871153 0.13745398 0 0 Z M20.5 29.125 C13.75161179 37.17592637 8.60231236 44.35274828 9.5 55.125 C11.16060444 58.37137454 11.16060444 58.37137454 14.125 58.6875 C18.91144448 57.88975925 21.98159424 55.38190263 25.5 52.125 C27.4451 49.20735 27.95276317 47.49962715 28.5 44.125 C29.49 43.795 30.48 43.465 31.5 43.125 C33.76386832 38.35896143 34.14228325 33.31993804 33.5 28.125 C32.5548105 25.9096446 32.5548105 25.9096446 31.5 24.125 C26.46557108 24.125 24.0502903 25.79660285 20.5 29.125 Z M-73.5 43.125 C-72.5 45.125 -72.5 45.125 -72.5 45.125 Z " fill="#6B6D6F" transform="translate(1205.5,625.875)"/>
<path d="M0 0 C15.30261354 -0.41545557 31.5332482 1.4683559 43.1640625 12.21875 C49.83255106 19.70194079 50.53209512 28.57871906 50.06982422 38.20361328 C49.26878616 46.93209067 45.13848477 54.33930654 39.890625 61.15625 C39.21386719 62.07857422 39.21386719 62.07857422 38.5234375 63.01953125 C30.54449974 73.18478811 17.51011458 79.9625589 4.890625 82.15625 C1.26098555 82.47191632 -2.34242876 82.52624045 -5.984375 82.53125 C-7.37849609 82.56798828 -7.37849609 82.56798828 -8.80078125 82.60546875 C-14.89718031 82.6309767 -19.48385184 81.58646121 -25.02001953 79.01806641 C-27.19491128 77.96559262 -27.19491128 77.96559262 -30.109375 78.15625 C-31.74603552 80.36976628 -33.04650028 82.70221463 -34.4140625 85.08984375 C-36.109375 87.15625 -36.109375 87.15625 -38.6328125 88.0859375 C-41.109375 88.15625 -41.109375 88.15625 -43.859375 85.84375 C-48.45071527 80.35964912 -47.33115561 74.56294491 -47.359375 67.65625 C-47.38 66.39425781 -47.400625 65.13226562 -47.421875 63.83203125 C-47.42703125 62.62933594 -47.4321875 61.42664063 -47.4375 60.1875 C-47.4468457 59.07955078 -47.45619141 57.97160156 -47.46582031 56.83007812 C-47.28937988 55.5065332 -47.28937988 55.5065332 -47.109375 54.15625 C-44.109375 52.15625 -44.109375 52.15625 -41.421875 52.53125 C-40.65875 52.7375 -39.895625 52.94375 -39.109375 53.15625 C-39.5425 54.9196875 -39.5425 54.9196875 -39.984375 56.71875 C-40.35706596 59.5114476 -40.34558846 60.75153247 -38.91015625 63.2109375 C-36.81726349 65.65349031 -35.00504793 67.70841354 -32.109375 69.15625 C-31.99907959 68.4535498 -31.88878418 67.75084961 -31.77514648 67.02685547 C-31.03351869 63.82918049 -29.86749807 61.19001963 -28.45703125 58.2265625 C-27.92787109 57.10121094 -27.39871094 55.97585938 -26.85351562 54.81640625 C-26.29857422 53.64980469 -25.74363281 52.48320313 -25.171875 51.28125 C-20.99322491 42.891901 -20.99322491 42.891901 -17.890625 34.08203125 C-15.81216403 26.29819492 -8.58837966 19.59272099 -2.109375 15.15625 C1.87034367 13.64424219 4.88566748 13.75845432 8.890625 15.34375 C9.880625 16.2409375 9.880625 16.2409375 10.890625 17.15625 C10.890625 18.47625 10.890625 19.79625 10.890625 21.15625 C10.14554688 21.26066406 9.40046875 21.36507812 8.6328125 21.47265625 C0.34910898 23.53768206 -4.7484585 32.43383668 -9.109375 39.15625 C-11.59773039 43.31481156 -13.95803269 47.53715665 -16.296875 51.78125 C-16.89951172 52.86148438 -17.50214844 53.94171875 -18.12304688 55.0546875 C-21.25547263 60.69374155 -24.28081378 66.35875232 -27.109375 72.15625 C-18.20769192 77.89927134 -10.13073268 78.42225993 0.18359375 76.5625 C15.39632021 72.56012617 28.70004634 62.40593681 36.828125 49.03125 C41.29927484 40.81344219 42.93372346 33.50688264 41.890625 24.15625 C40.88653564 21.23397105 39.517736 18.76912897 37.890625 16.15625 C37.59929687 15.4653125 37.30796875 14.774375 37.0078125 14.0625 C35.59686663 11.65501194 34.45638872 11.18898137 31.890625 10.15625 C31.09785156 9.81464844 30.30507813 9.47304688 29.48828125 9.12109375 C28.65167969 8.78207031 27.81507813 8.44304688 26.953125 8.09375 C26.11910156 7.75214844 25.28507813 7.41054688 24.42578125 7.05859375 C6.57050069 0.7033244 -15.51656892 6.63242206 -32.109375 14.15625 C-40.24861314 18.15085305 -49.30026503 23.1512018 -53.30078125 31.703125 C-54.29185345 34.70985612 -54.45135188 37.01006267 -54.109375 40.15625 C-52.06019334 42.66999769 -49.82626156 43.96297606 -46.921875 45.34375 C-46.20644531 45.68792969 -45.49101562 46.03210938 -44.75390625 46.38671875 C-43.93986328 46.76763672 -43.93986328 46.76763672 -43.109375 47.15625 C-43.109375 47.81625 -43.109375 48.47625 -43.109375 49.15625 C-49.18731643 48.88611927 -53.27698213 48.18324406 -58.109375 44.15625 C-61.62891413 40.24097322 -61.68488741 37.21239693 -61.5078125 32.09765625 C-60.52170884 24.81789102 -57.16571055 19.67602155 -51.671875 14.90625 C-36.87316135 4.11189416 -17.93312776 0.9011622 0 0 Z M-42.109375 67.15625 C-41.779375 71.77625 -41.449375 76.39625 -41.109375 81.15625 C-40.119375 81.15625 -39.129375 81.15625 -38.109375 81.15625 C-35.63122625 77.34064232 -35.63122625 77.34064232 -35.609375 73.03125 C-37.46354167 70.57291667 -37.46354167 70.57291667 -42.109375 67.15625 Z " fill="#6B6D6F" transform="translate(540.109375,606.84375)"/>
<path d="M0 0 C54.80472106 -0.02287607 109.60944163 -0.04050317 164.41416652 -0.05106533 C170.88060321 -0.05231607 177.34703989 -0.05361039 183.81347656 -0.05493164 C185.10085767 -0.05519395 186.38823877 -0.05545626 187.71463142 -0.05572652 C208.5748271 -0.06008087 229.43502003 -0.06796713 250.29521407 -0.0771528 C271.69089766 -0.08649586 293.08657981 -0.092057 314.48226535 -0.09408849 C327.69039236 -0.09546236 340.8985116 -0.09980561 354.10663621 -0.10791647 C363.15714893 -0.11319197 372.20765761 -0.11480245 381.25817175 -0.11350138 C386.48410803 -0.11285927 391.71003071 -0.11386131 396.93596458 -0.11920547 C401.71777858 -0.12405989 406.49956978 -0.12432513 411.28138481 -0.12089889 C413.01364745 -0.12047522 414.7459115 -0.12175373 416.47817136 -0.12488318 C418.8290177 -0.12888409 421.17978128 -0.12674027 423.5306263 -0.12304783 C425.49112236 -0.12361741 425.49112236 -0.12361741 427.49122441 -0.1241985 C430.75495564 -0.00867372 433.79820976 0.3777459 437 1 C437 2.32 437 3.64 437 5 C292.79 5 148.58 5 0 5 C0 3.35 0 1.7 0 0 Z " fill="#6B6D6F" transform="translate(1620,649)"/>
<path d="M0 0 C1.09845665 -0.00173077 1.09845665 -0.00173077 2.21910435 -0.0034965 C4.68614778 -0.00615468 7.15312665 -0.00164753 9.62016678 0.00279331 C11.40140811 0.00235745 13.18264939 0.00148226 14.96389031 0.00020415 C19.86893938 -0.00203782 24.77396672 0.00197642 29.67901301 0.00698221 C34.96460899 0.01129078 40.25020369 0.00983999 45.53580093 0.00907993 C54.69689856 0.00855496 63.85798909 0.01169902 73.01908493 0.01731777 C86.26457908 0.02543632 99.51006978 0.02804836 112.75556615 0.02930576 C134.24422811 0.03149572 155.73288627 0.03815429 177.22154617 0.04760838 C198.09882463 0.05678394 218.97610205 0.06386407 239.85338211 0.06811619 C241.78289841 0.06851027 241.78289841 0.06851027 243.75139484 0.06891232 C250.204447 0.07021733 256.65749918 0.07148105 263.11055136 0.07272422 C316.66594418 0.08309509 370.22133288 0.10071189 423.77672195 0.12304783 C423.77672195 1.77304783 423.77672195 3.42304783 423.77672195 5.12304783 C280.22672195 5.12304783 136.67672195 5.12304783 -11.22327805 5.12304783 C-11.22327805 3.80304783 -11.22327805 2.48304783 -11.22327805 1.12304783 C-7.47542099 -0.06846132 -3.9130528 -0.00113619 0 0 Z " fill="#6B6D6F" transform="translate(15.223278045654297,648.8769521713257)"/>
<path d="M0 0 C21.12 0 42.24 0 64 0 C64 5.28 64 10.56 64 16 C56.74 16 49.48 16 42 16 C42 34.48 42 52.96 42 72 C35.4 72 28.8 72 22 72 C22 53.52 22 35.04 22 16 C14.74 16 7.48 16 0 16 C0 10.72 0 5.44 0 0 Z " fill="#FFFFFF" transform="translate(1110,441)"/>
<path d="M0 0 C4.09804808 2.99248947 7.00537972 6.16293524 8.6875 11 C9.65965552 17.88251695 9.51261941 24.34520594 5.89453125 30.41796875 C3.16899206 33.99027739 -0.22823794 36.25172753 -4.3125 38 C-10.50453398 38.79863755 -15.88628992 38.23485601 -21.3125 35 C-25.78234061 30.8192022 -28.80669211 26.56195237 -29.68359375 20.38671875 C-29.85162793 13.55662343 -28.83104014 9.20280993 -24.3125 4 C-17.88196971 -2.59499398 -8.31784682 -4.70345038 0 0 Z " fill="#45DBFF" transform="translate(1370.3125,459)"/>
<path d="M0 0 C2.536875 -0.061875 5.07375 -0.12375 7.6875 -0.1875 C8.47729248 -0.21481201 9.26708496 -0.24212402 10.08081055 -0.27026367 C15.73407018 -0.33673897 18.69999645 1.00666359 22.875 4.625 C24.67939414 8.43427651 24.09501562 12.00209061 23 16 C20.75410675 18.99452434 19.55130633 19.81623122 16 21 C13.25917841 21.07056698 10.55153023 21.09336154 7.8125 21.0625 C5.234375 21.041875 2.65625 21.02125 0 21 C0 14.07 0 7.14 0 0 Z " fill="#49E5FF" transform="translate(1574,457)"/>
<path d="M0 0 C-0.38728235 5.71241466 -0.87010523 8.73688282 -5 13 C-7.97 12.505 -7.97 12.505 -11 12 C-11.33 10.68 -11.66 9.36 -12 8 C-10.37982158 6.66081194 -8.75370657 5.3288031 -7.125 4 C-6.22007813 3.2575 -5.31515625 2.515 -4.3828125 1.75 C-2 0 -2 0 0 0 Z " fill="#6B6D6F" transform="translate(1485,628)"/>
<path d="M0 0 C-0.38728235 5.71241466 -0.87010523 8.73688282 -5 13 C-7.97 12.505 -7.97 12.505 -11 12 C-11.33 10.68 -11.66 9.36 -12 8 C-10.37982158 6.66081194 -8.75370657 5.3288031 -7.125 4 C-6.22007813 3.2575 -5.31515625 2.515 -4.3828125 1.75 C-2 0 -2 0 0 0 Z " fill="#6B6D6F" transform="translate(1119,628)"/>
<path d="M0 0 C2.475 0.495 2.475 0.495 5 1 C5.33 3.31 5.66 5.62 6 8 C6.99 8 7.98 8 9 8 C9.33 8.99 9.66 9.98 10 11 C8.35 11.33 6.7 11.66 5 12 C3 6.375 3 6.375 3 3 C2.01 2.67 1.02 2.34 0 2 C0 1.34 0 0.68 0 0 Z " fill="#6B6D6F" transform="translate(1019,131)"/>
<path d="M0 0 C3.375 0.25 3.375 0.25 7 1 C7.66 2.32 8.32 3.64 9 5 C6.03 4.67 3.06 4.34 0 4 C0 2.68 0 1.36 0 0 Z " fill="#6B6D6F" transform="translate(1108,95)"/>
<path d="M0 0 C0.99 0 1.98 0 3 0 C2.67 1.32 2.34 2.64 2 4 C0.68 4.33 -0.64 4.66 -2 5 C-1.125 1.125 -1.125 1.125 0 0 Z " fill="#6B6D6F" transform="translate(1117,113)"/>
<path d="M0 0 C1.32 0.33 2.64 0.66 4 1 C4 1.66 4 2.32 4 3 C2.68 2.67 1.36 2.34 0 2 C0 1.34 0 0.68 0 0 Z " fill="#6B6D6F" transform="translate(1074,101)"/>
<path d="M0 0 C0.99 0 1.98 0 3 0 C2.67 0.99 2.34 1.98 2 3 C1.34 3 0.68 3 0 3 C0 2.01 0 1.02 0 0 Z " fill="#6B6D6F" transform="translate(1019,141)"/>
<path d="M0 0 C0.66 0 1.32 0 2 0 C2 0.99 2 1.98 2 3 C1.34 3 0.68 3 0 3 C0 2.01 0 1.02 0 0 Z " fill="#6B6D6F" transform="translate(1029,143)"/>
<path d="M0 0 C0.66 0 1.32 0 2 0 C1.67 0.99 1.34 1.98 1 3 C0.67 2.01 0.34 1.02 0 0 Z " fill="#6B6D6F" transform="translate(1133,140)"/>
<path d="M0 0 C2 1 2 1 2 1 Z " fill="#6B6D6F" transform="translate(1123,137)"/>
</svg>
